<svg height="512pt" viewBox="0 -36 512.00059 512" width="512pt" xmlns="http://www.w3.org/2000/svg"><path d="m168.769531 58.738281c49.09375-6.660156 55.75-32.453125 84.875-29.125 29.121094 3.328125 15.808594 52.421875 47.429688 53.253907 31.617187.832031 143.949219-7.488282 168.082031 80.714843 24.128906 88.199219-2.496094 150.609375-24.132812 183.058594v61.210937c0 12.609376-10.21875 22.832032-22.832032 22.832032-12.609375 0-22.828125-10.222656-22.828125-22.832032v-58.714843s-32.554687-22.464844-48.367187-47.429688h-116.8125v106.671875c0 12.316406-9.988282 22.304688-22.304688 22.304688-12.320312 0-22.308594-9.988282-22.308594-22.304688v-109.996094s-38.246093-21.671874-52.792968-43.980468c0 0-9.699219 76.621094-43.644532 74.679687-33.945312-1.941406-59.160156-84.378906-59.160156-84.378906s-30.066406-9.695313-24.246094-64.976563c5.816407-55.285156 41.539063-124.710937 87.285157-137.71875 44.613281-12.6875 71.757812 16.730469 71.757812 16.730469zm0 0" fill="#dd8858"/><g fill="#d97f4a"><path d="m76.867188 322.070312c5.125 4.085938 10.574218 6.6875 16.265624 7.011719 33.945313 1.9375 43.644532-74.679687 43.644532-74.679687-19.257813-2.621094-37.605469 9.261718-42.878906 27.96875-3.460938 12.273437-8.8125 26.441406-17.03125 39.699218zm0 0"/><path d="m469.15625 163.582031c-24.132812-88.203125-136.464844-79.882812-168.082031-80.714843 0 0 123.164062 17.269531 139.628906 88.695312 20.542969 89.105469-1.042969 142.628906-22.675781 175.078125v61.210937c0 7.558594-3.675782 14.253907-9.332032 18.410157 3.78125 2.777343 8.445313 4.421875 13.5 4.421875 12.609376 0 22.832032-10.222656 22.832032-22.832032v-61.210937c21.632812-32.449219 48.257812-94.859375 24.128906-183.058594zm0 0"/><path d="m207.183594 408.378906c0 7.242188-3.457032 13.679688-8.804688 17.753906 3.957032 3.011719 8.949219 4.734376 14.351563 4.535157 12.066406-.453125 21.453125-10.722657 21.453125-22.796875v-106.164063c-14.910156 0-27 12.089844-27 27zm0 0"/></g><path d="m141.101562 123.964844c-18.253906-4.539063-24.621093-27.433594-11.488281-40.902344 7.398438-7.585938 16.105469-17.996094 21.394531-29.335938 10.609376-22.726562 16.667969-44.445312 31.316407-44.953124 13.714843-.472657 19.902343 63.257812-16.261719 107.035156-5.90625 7.148437-15.363281 10.386718-24.394531 8.292968-.1875-.042968-.378907-.089843-.566407-.136718zm0 0" fill="#ffe9c8"/><path d="m182.324219 8.777344c-4.425781.152344-8.066407 2.25-11.285157 5.71875 3.558594 21.800781-1.492187 60.640625-26.007812 90.3125-4.589844 5.558594-11.332031 8.742187-18.351562 8.902344 3.152343 4.863281 8.0625 8.675781 14.421874 10.257812.1875.046875.378907.089844.566407.132812 9.03125 2.09375 18.488281-1.144531 24.394531-8.292968 36.164062-43.777344 29.976562-107.503906 16.261719-107.03125zm0 0" fill="#ffdca7"/><path d="m483.539062 155.171875c-12.859374-22.035156-25.839843-34.132813-28.972656-36.882813-19.589844-21.613281-49.324218-35.269531-88.953125-40.738281-4.117187-.566406-7.933593 2.316407-8.503906 6.445313-.570313 4.125 2.316406 7.933594 6.441406 8.5 24.296875 3.351562 44.582031 10.015625 60.292969 19.800781 19.828125 12.355469 33.046875 30.171875 39.277344 52.949219 11.964844 43.738281 12.460937 85.46875 1.464844 124.03125-1.082032 3.800781 1.050781 7.898437 4.785156 9.195312 4.039062 1.402344 8.554687-.949218 9.726562-5.058594 9.074219-31.835937 10.855469-65.585937 5.355469-100.679687 7.339844 20.164063 12.671875 45.242187 12.453125 75.402344-.03125 4.164062 3.324219 7.566406 7.488281 7.597656h.054688c4.140625 0 7.511719-3.34375 7.542969-7.488281.378906-52.503906-15.265626-90.46875-28.453126-113.074219zm0 0"/><path d="m60.945312 129.835938c0 10.664062 6.726563 19.015624 15.3125 19.015624 8.585938 0 15.308594-8.351562 15.308594-19.015624 0-10.664063-6.722656-19.015626-15.308594-19.015626-8.585937 0-15.3125 8.351563-15.3125 19.015626zm0 0"/><path d="m464.777344 312.300781c-3.792969-1.707031-8.265625-.015625-9.972656 3.785157-4.289063 9.539062-9.324219 18.660156-14.957032 27.109374-.824218 1.242188-1.265625 2.695313-1.265625 4.1875v61.5625c0 8.503907-6.917969 15.421876-15.421875 15.421876-8.5 0-15.417968-6.917969-15.417968-15.421876v-59.054687c0-2.480469-1.21875-4.800781-3.261719-6.207031-.3125-.21875-31.648438-21.996094-46.554688-45.535156-1.382812-2.183594-3.789062-3.507813-6.371093-3.507813h-117.496094c-4.167969 0-7.546875 3.378906-7.546875 7.542969v107.292968c0 8.210938-6.679688 14.890626-14.890625 14.890626-8.210938 0-14.890625-6.679688-14.890625-14.890626v-41.460937c0-4.167969-3.378907-7.542969-7.546875-7.542969-4.164063 0-7.542969 3.375-7.542969 7.542969v41.460937c0 16.527344 13.449219 29.976563 29.980469 29.976563s29.976562-13.449219 29.976562-29.976563v-99.746093h105.910156c14.019532 20.179687 36.703126 37.828125 45.144532 44.03125v55.183593c0 16.824219 13.6875 30.507813 30.507812 30.507813 16.824219 0 30.507813-13.6875 30.507813-30.507813v-59.304687c5.582031-8.597656 10.589843-17.792969 14.894531-27.367187 1.710938-3.796876.015625-8.261719-3.785156-9.972657zm0 0"/><path d="m181.644531 337.839844c0 4.167968 3.375 7.542968 7.542969 7.542968s7.542969-3.375 7.542969-7.542968v-39c0-2.71875-1.460938-5.226563-3.824219-6.5625-.367188-.210938-37.058594-21.175782-50.503906-41.792969-3.753906-5.761719-12.941406-3.632813-13.800782 3.171875-.027343.1875-2.414062 18.675781-8.777343 36.726562-9.527344 27.027344-20.050781 32.226563-27.207031 31.800782-20.414063-1.164063-42.199219-46.683594-51.890626-76.894532 2.824219-7.042968 8.308594-25.191406-1.519531-42.15625-4.644531-8.023437-12.632812-14.316406-23.769531-18.765624.101562-1.351563.214844-2.710938.359375-4.085938 2.871094-27.261719 13.011719-57.199219 27.820313-82.140625 15.851562-26.691406 35.214843-44.417969 54.535156-49.914063 18.835937-5.355468 34.175781-2.429687 45.054687 2.074219-4.046875 8.378907-10.847656 17.589844-19.726562 26.699219-8.152344 8.355469-11.101563 20.085938-7.890625 31.371094 3.1875 11.207031 11.792968 19.566406 23.023437 22.359375.234375.058593.46875.113281.683594.164062 2.441406.566407 4.894531.839844 7.324219.839844 9.453125 0 18.5-4.179687 24.734375-11.726563 16.050781-19.425781 24.246093-42.011718 27.371093-62.121093 10.089844-3.898438 17.65625-8.441407 24.425782-12.507813 10.753906-6.453125 17.863281-10.714844 29.625-9.375 9.011718 1.027344 11.90625 8.46875 16.246094 21.523438 4.421874 13.300781 10.476562 31.515625 32.117187 32.085937 2.867187.074219 6.285156.078125 10.246094.082031 6.351562.003907 14.261719.011719 22.90625.34375 4.109375.164063 7.671875-3.148437 7.828125-7.25.15625-4.109374-3.140625-7.671874-7.25-7.828124-8.925782-.339844-16.992188-.347657-23.472656-.351563-3.855469-.003906-7.1875-.007813-9.863282-.078125-10.011718-.265625-13.230468-6.832031-18.191406-21.761719-4.382812-13.179687-9.835938-29.582031-28.855469-31.757812-16.851562-1.929688-27.660156 4.5625-39.101562 11.433593-4.503907 2.707032-9.398438 5.640626-15.152344 8.371094.253906-13.3125-1.777344-24.402344-5.03125-31.015625-4.320313-8.777343-10.367187-9.917969-13.566406-9.7929685-16.550781.5703125-24.246094 17.9414065-32.28125 36.5039065-13.355469-5.621094-32.242188-9.363281-55.328125-2.796875-23.042969 6.554687-45.550782 26.695312-63.382813 56.722656-15.878906 26.746094-26.761719 58.917969-29.851562 88.265625-.375 3.5625-.621094 7.078125-.7265628 10.445313-.0039062.039062 0 .074218 0 .113281 0 .027343-.0039062.050781-.0078124.074219-1.2656248 41.527343 17.9375002 56.429687 26.4609372 60.980468 2.242188 6.769532 7.976563 23.027344 16.382813 39.640625 15.378906 30.40625 31.816406 46.316407 48.855468 47.289063 22.296876 1.308594 35.316407-22.050782 42.296876-41.84375 2.9375-8.335938 5.082031-16.652344 6.578124-23.515625 14.09375 14.285156 32.976563 26.390625 41.011719 31.257812zm-.648437-322.601563c2.042968 2.960938 5.707031 14.414063 3.546875 34.457031-1.417969 13.167969-6.527344 38.5625-24.820313 60.703126-4.105468 4.96875-10.785156 7.246093-17.035156 5.792968l-.433594-.101562c-5.917968-1.472656-10.460937-5.898438-12.152344-11.84375-1.714843-6.023438-.152343-12.273438 4.175782-16.714844 10.457031-10.71875 18.179687-21.34375 22.953125-31.578125 2.050781-4.390625 3.90625-8.683594 5.703125-12.835937 6.101562-14.09375 11.417968-26.375 18.0625-27.878907zm0 0"/></svg>