<svg height="511pt" viewBox="0 -37 511.99978 511" width="511pt" xmlns="http://www.w3.org/2000/svg"><g fill="#ff9838"><path d="m131.867188 327.699219c-3.464844 1.265625-6.582032 2.972656-9.132813 5.230469-17.738281 15.703124-59.003906 82.167968-35.277344 96.082031 21.5625 12.644531 32.683594-44.921875 58.375-56.484375 8.378907-3.769532 18.304688-4.554688 28.03125-3.839844-17.011719-11.023438-31.261719-25.15625-41.996093-40.988281zm0 0"/><path d="m110.132812 270.589844c-13.160156-2.339844-28.605468-2.972656-38.246093 3.671875-19.507813 13.449219-68.492188 74.445312-46.621094 91.121093 19.878906 15.15625 37.867187-40.648437 64.769531-49.023437 11.039063-3.4375 23.949219-1.882813 35.617188 1.300781-8.371094-14.902344-13.722656-30.945312-15.519532-47.070312zm0 0"/><path d="m122.839844 208.839844c1.65625-2.808594 3.4375-5.484375 5.316406-8.039063 0-.003906-.003906-.003906-.003906-.003906s-41.890625-19.644531-62.378906-7.75c-20.488282 11.898437-74.046876 68.917969-53.53125 87.238281 18.644531 16.648438 40.898437-37.59375 68.367187-43.863281 9.761719-2.226563 20.628906-.609375 30.757813 2.511719 2.070312-10.402344 5.832031-20.535156 11.472656-30.09375zm0 0"/><path d="m380.121094 327.699219c3.460937 1.265625 6.578125 2.972656 9.128906 5.230469 17.742188 15.703124 59.003906 82.167968 35.277344 96.082031-21.558594 12.644531-32.679688-44.921875-58.375-56.484375-8.375-3.769532-18.304688-4.554688-28.03125-3.839844 17.015625-11.023438 31.265625-25.15625 42-40.988281zm0 0"/><path d="m401.855469 270.589844c13.160156-2.339844 28.605469-2.972656 38.246093 3.671875 19.503907 13.449219 68.492188 74.445312 46.621094 91.121093-19.878906 15.15625-37.867187-40.648437-64.769531-49.023437-11.042969-3.4375-23.949219-1.882813-35.617187 1.300781 8.367187-14.902344 13.71875-30.945312 15.519531-47.070312zm0 0"/><path d="m389.148438 208.839844c-1.660157-2.808594-3.441407-5.484375-5.320313-8.039063.003906-.003906.003906-.003906.003906-.003906s41.894531-19.644531 62.382813-7.75c20.484375 11.898437 74.046875 68.917969 53.53125 87.238281-18.648438 16.648438-40.898438-37.59375-68.371094-43.863281-9.761719-2.226563-20.628906-.609375-30.757812 2.511719-2.066407-10.402344-5.828126-20.535156-11.46875-30.09375zm0 0"/><path d="m137.796875 130.375c-2.609375 2.363281-5.347656 4.382812-8.09375 6.097656-6.425781 4.019532-13.566406 6.832032-21.058594 8.011719-1.597656.25-3.242187.4375-4.921875.550781l24.429688 55.761719h.003906c8.105469-11.023437 18.132812-19.757813 28.984375-26.675781zm0 0"/><path d="m374.199219 130.375c2.609375 2.363281 5.347656 4.382812 8.089843 6.097656 6.425782 4.019532 13.570313 6.832032 21.058594 8.011719 1.597656.25 3.242188.4375 4.921875.550781l-24.425781 55.761719c-.003906 0-.003906 0-.007812 0-8.101563-11.023437-18.128907-19.757813-28.980469-26.675781zm0 0"/></g><path d="m108.648438 144.484375c7.488281-1.179687 14.628906-3.992187 21.058593-8.011719 10.519531-6.582031 21.027344-17.46875 24.042969-36.25 6.40625-39.863281-28.769531-97.683594-46.28125-91.671875-12.894531 4.425781-4.328125 25.550781-7.664062 40.640625-2.519532 11.398438-16.089844 16.429688-25.433594 9.429688-12.367188-9.265625-19.648438-30.863282-32.308594-25.8125-17.199219 6.859375-6.167969 73.632812 24.683594 99.683594 14.273437 12.054687 29.398437 13.960937 41.902344 11.992187zm0 0" fill="#ffaa5c"/><path d="m129.703125 109.472656c-6.425781 4.019532-13.566406 6.832032-21.058594 8.011719-12.5 1.96875-27.625.0625-41.902343-11.992187-16.910157-14.28125-27.867188-40.804688-31.480469-62.984376-5.492188 21.050782 6.488281 68.878907 31.480469 89.984376 14.277343 12.054687 29.402343 13.960937 41.90625 11.992187 7.488281-1.179687 14.628906-3.992187 21.058593-8.011719 10.519531-6.582031 21.027344-17.46875 24.042969-36.25 1.230469-7.660156.925781-15.980468-.496094-24.382812-3.535156 17.175781-13.53125 27.367187-23.550781 33.632812zm0 0" fill="#ff9838"/><path d="m403.347656 144.484375c-7.488281-1.179687-14.632812-3.992187-21.0625-8.011719-10.519531-6.582031-21.027344-17.46875-24.042968-36.25-6.40625-39.863281 28.769531-97.683594 46.28125-91.671875 12.890624 4.425781 4.328124 25.550781 7.664062 40.640625 2.519531 11.398438 16.089844 16.429688 25.433594 9.429688 12.367187-9.265625 19.648437-30.863282 32.308594-25.8125 17.199218 6.859375 6.167968 73.632812-24.683594 99.683594-14.273438 12.054687-29.398438 13.960937-41.898438 11.992187zm0 0" fill="#ffaa5c"/><path d="m445.25 105.492188c-14.277344 12.054687-29.402344 13.960937-41.902344 11.992187-7.488281-1.179687-14.632812-3.992187-21.0625-8.011719-10.015625-6.265625-20.007812-16.457031-23.546875-33.632812-1.417969 8.402344-1.726562 16.722656-.496093 24.382812 3.015624 18.78125 13.527343 29.667969 24.046874 36.25 6.425782 4.019532 13.570313 6.832032 21.058594 8.011719 12.5 1.96875 27.625.0625 41.902344-11.992187 24.992188-21.105469 36.976562-68.933594 31.480469-89.984376-3.613281 22.179688-14.570313 48.703126-31.480469 62.984376zm0 0" fill="#ff9838"/><path d="m255.992188 392.765625c107.570312 0 177.164062-109.371094 133.15625-183.925781-37.121094-62.894532-133.160157-61.078125-133.160157-61.078125s-96.027343-1.816407-133.152343 61.078125c-44.003907 74.554687 25.585937 183.925781 133.15625 183.925781zm0 0" fill="#ffaa5c"/><path d="m398.796875 343.421875c-3.523437-4.449219-6.8125-8.074219-9.546875-10.492187-2.550781-2.257813-5.667969-3.964844-9.128906-5.230469-10.734375 15.832031-24.984375 29.964843-42 40.988281 9.726562-.714844 19.65625.070312 28.03125 3.839844 1.148437.515625 2.261718 1.125 3.355468 1.8125 11.160157-9.230469 21.003907-19.660156 29.289063-30.917969zm0 0" fill="#ff8709"/><path d="m401.855469 270.589844c-1.800781 16.125-7.152344 32.167968-15.519531 47.070312 9.507812-2.597656 19.839843-4.105468 29.316406-2.714844 6.726562-14.578124 11.0625-29.855468 12.664062-45.183593-8.292968-1.484375-17.863281-.703125-26.460937.828125zm0 0" fill="#ff8709"/><path d="m413.210938 197.742188c-1.179688-2.003907-2.421876-3.9375-3.699219-5.828126-14.023438 3.417969-25.679688 8.882813-25.679688 8.882813s-.003906 0-.003906.003906c1.878906 2.554688 3.660156 5.230469 5.320313 8.039063 5.640624 9.558594 9.402343 19.691406 11.46875 30.09375 8.710937-2.683594 17.964843-4.25 26.59375-3.21875-2.316407-13.136719-6.894532-25.941406-14-37.972656zm0 0" fill="#ff8709"/><path d="m383.839844 200.796875 11.429687-26.085937c-9.222656-9.199219-19.671875-16.679688-30.613281-22.757813l-9.804688 22.167969c10.851563 6.917968 20.878907 15.652344 28.984376 26.675781zm0 0" fill="#ff8709"/><path d="m113.1875 343.421875c3.527344-4.449219 6.816406-8.074219 9.546875-10.492187 2.550781-2.257813 5.667969-3.964844 9.132813-5.230469 10.734374 15.832031 24.984374 29.964843 41.996093 40.988281-9.726562-.714844-19.652343.070312-28.03125 3.839844-1.144531.515625-2.261719 1.125-3.351562 1.8125-11.160157-9.230469-21.003907-19.660156-29.292969-30.917969zm0 0" fill="#ff8709"/><path d="m110.132812 270.589844c1.800782 16.125 7.148438 32.167968 15.519532 47.070312-9.507813-2.597656-19.839844-4.105468-29.316406-2.714844-6.726563-14.578124-11.0625-29.855468-12.667969-45.183593 8.296875-1.484375 17.863281-.703125 26.464843.828125zm0 0" fill="#ff8709"/><path d="m98.773438 197.742188c1.183593-2.003907 2.425781-3.9375 3.703124-5.828126 14.019532 3.417969 25.675782 8.882813 25.675782 8.882813s.003906 0 .003906.003906c-1.878906 2.554688-3.660156 5.230469-5.316406 8.039063-5.640625 9.558594-9.40625 19.691406-11.472656 30.09375-8.710938-2.683594-17.964844-4.25-26.59375-3.21875 2.320312-13.136719 6.898437-25.941406 14-37.972656zm0 0" fill="#ff8709"/><path d="m128.144531 200.796875-11.425781-26.085937c9.222656-9.199219 19.671875-16.679688 30.613281-22.757813l9.800781 22.167969c-10.851562 6.917968-20.878906 15.652344-28.980468 26.675781-.003906 0-.003906 0-.007813 0zm0 0" fill="#ff8709"/><path d="m255.992188 365.765625c-79.289063 0-137.933594-59.421875-145.671876-120.519531-9.140624 69.25 54.671876 147.519531 145.671876 147.519531s154.8125-78.269531 145.671874-147.519531c-7.738281 61.097656-66.382812 120.519531-145.671874 120.519531zm0 0" fill="#ff9838"/><path d="m487.367188 220.773438c-2.664063-3.175782-7.394532-3.585938-10.570313-.921876-3.175781 2.667969-3.585937 7.398438-.921875 10.574219 17.316406 20.613281 25.132812 38.828125 19.007812 44.296875-3.320312 2.960938-7.589843 1.230469-24.113281-16.917968-10.824219-11.894532-23.09375-25.371094-37.625-28.6875-7.925781-1.808594-16.96875-1.597657-26.957031.613281-2.398438-8.617188-5.898438-16.910157-10.5-24.710938-.15625-.261719-.324219-.523437-.480469-.785156 13.617188-5.078125 36.175781-11.199219 47.34375-4.710937 3.390625 1.96875 8.058594 5.546874 13.15625 10.074218 3.054688 2.714844 7.875 2.433594 10.59375-.621094 2.753907-3.097656 2.476563-7.84375-.621093-10.59375-5.910157-5.253906-11.296876-9.34375-15.589844-11.835937-14.703125-8.539063-36.714844-4.15625-52.078125.761719l15.210937-34.71875c10.941406-.253906 24.144532-3.578125 36.972656-14.414063 24.742188-20.890625 38.992188-67.542969 34.742188-93.734375-1.988281-12.261718-7.679688-16.941406-12.105469-18.703125-13.375-5.335937-22.507812 6.546875-29.175781 15.222657-3.339844 4.347656-6.796875 8.84375-10.429688 11.570312-4.925781 3.691406-12.296874.9375-13.621093-5.054688-.980469-4.433593-.667969-10.09375-.367188-15.570312.605469-10.925781 1.429688-25.890625-12.191406-30.566406-4.507813-1.546875-11.871094-1.714844-21.375 6.289062-20.300781 17.085938-39.914063 61.746094-34.777344 93.71875 1.933594 12.054688 6.777344 22.308594 14.425781 30.660156l-13.871093 31.367188c-1.402344-.777344-2.828125-1.539062-4.273438-2.28125 1.910157-12.21875-3.851562-23.046875-13.472656-24.914062-7.9375-1.539063-15.726563 3.550781-19.78125 12.136718-1.113281-.308594-2.230469-.609375-3.359375-.902344-28.496094-7.367187-52.304688-7.230468-54.566406-7.195312-2.261719-.03125-26.070313-.171875-54.5625 7.195312-1.128906.292969-2.246094.59375-3.355469.902344-4.058594-8.585937-11.84375-13.671875-19.777344-12.136718-9.621093 1.867187-15.382812 12.691406-13.476562 24.910156-1.449219.742187-2.871094 1.503906-4.273438 2.285156l-13.867187-31.367188c7.644531-8.351562 12.488281-18.605468 14.425781-30.65625 5.132813-31.972656-14.480469-76.636718-34.78125-93.722656-9.503906-8-16.871094-7.835937-21.375-6.289062-13.621094 4.675781-12.796875 19.640625-12.191406 30.566406.300781 5.476562.613281 11.136719-.367188 15.574219-1.324219 5.992187-8.691406 8.738281-13.621093 5.050781-3.632813-2.722656-7.089844-7.222656-10.429688-11.570312-6.667969-8.675782-15.796875-20.558594-29.175781-15.222657-14.996094 5.980469-14.839844 31.632813-9.691407 53.640625.945313 4.035156 4.976563 6.542969 9.015626 5.597656 4.035156-.941406 6.542968-4.980468 5.597656-9.015624-5.335938-22.820313-1.660156-35.367188.636718-36.28125 2.4375-.976563 5.453126 2.277343 11.714844 10.425781 3.777344 4.914062 8.050782 10.480469 13.335938 14.4375 6.4375 4.824219 14.808594 6.027343 22.390625 3.214843s13.144531-9.179687 14.882812-17.039062c1.425781-6.445312 1.039063-13.453125.695313-19.636719-.566406-10.265625-.398438-14.695312 2.082031-15.546875.390625-.128906 2.6875.082032 6.835937 3.578125 15.0625 12.671875 34.136719 51.792969 29.625 79.855469-2.183593 13.613281-8.933593 23.785156-20.628906 31.097656-5.796875 3.628906-11.941406 5.96875-18.257812 6.964844-13.25 2.089844-25.332032-1.382812-35.914063-10.320312-6.585937-5.558594-12.738281-13.84375-17.796875-23.957032-1.851562-3.707031-6.359375-5.210937-10.066406-3.355468-3.707031 1.851562-5.210938 6.359374-3.355469 10.066406 6.046875 12.09375 13.292969 21.753906 21.535157 28.714844 12.828124 10.832031 26.027343 14.15625 36.972656 14.410156l15.214844 34.722656c-15.363282-4.917969-37.382813-9.304688-52.085938-.765625-16.929688 9.824219-58.851562 51.132813-61.746094 79.5625-1.046875 10.308594 3.199219 16.460937 6.949219 19.804687 3.285156 2.933594 7.441406 4.84375 11.871094 5.023438 4.882812.199219 9.582031-1.675781 13.617187-4.304688 6.570313-4.285156 12.957032-11.300781 19.71875-18.726562 9.339844-10.261719 19.925782-21.890625 29.867188-24.160156 5.828125-1.328125 12.761718-1.089844 20.65625.699218-.75 5.75-1.054688 11.589844-.890625 17.484376-14.800781-1.433594-26.359375.625-34.425781 6.183593-16.109376 11.105469-54.710938 55.535157-55.394532 84.105469-.246094 10.359375 4.464844 16.164062 8.460938 19.210938 3.882812 2.957031 8.597656 4.554687 13.488281 3.988281 4.394531-.507813 8.503906-2.578125 11.976563-5.246094 6.21875-4.78125 12.046874-12.269531 18.210937-20.199219 8.515625-10.953125 18.171875-23.367187 27.90625-26.394531 7.542969-2.351563 17.125-2.132813 28.496094.625.121093.203125.242187.40625.363281.609375-1.191406.796875-2.3125 1.648438-3.34375 2.558594-14.652344 12.972656-47.605469 61.734375-44.835938 90.179687 1.007813 10.3125 6.382813 15.503907 10.71875 18.046875 4.382813 2.570313 9.472657 3.546875 14.425782 2.1875 4.078125-1.121094 7.703125-3.570312 10.703125-6.511718 5.597656-5.492188 10.472656-13.632813 15.636719-22.246094 7.132812-11.902344 15.21875-25.390625 24.515624-29.574219 5.933594-2.671875 13.542969-3.765625 22.601563-3.296875 24.789063 15.523438 54.023437 24.207031 84.539063 24.207031 4.144531 0 7.503906-3.359375 7.503906-7.503906s-3.359375-7.503906-7.503906-7.503906c-51.300782 0-98.589844-27.011719-123.417969-70.492188-19.605469-34.339843-20.859375-72.554687-3.347657-102.21875 10.296876-17.449219 25.710938-29.480469 41.644532-37.773437 3.957031 4.683594 9.984375 7.722656 16.195312 6.519531 5.199219-1.007813 9.539063-4.761719 11.902344-10.300781 1.039062-2.433594 1.65625-5.140625 1.859375-7.960938 1.351563-.386718 2.6875-.753906 3.996094-1.09375 27.386719-7.136718 50.796875-6.816406 51.023437-6.8125h.277344c.226562 0 23.640625-.328125 51.03125 6.8125 1.3125.339844 2.648438.710938 4.003906 1.09375.679688 9.296875 5.945313 16.742188 13.765625 18.261719 6.222657 1.207031 12.226563-1.828125 16.195313-6.515625 15.933594 8.292969 31.34375 20.324219 41.640625 37.769531 15.578125 26.394531 16.414062 59.605469 2.292969 91.113281-17.882813 39.90625-56.445313 70.117188-100.644532 78.84375-4.066406.800782-6.710937 4.75-5.910156 8.816407.804688 4.0625 4.75 6.707031 8.816406 5.90625 18.859375-3.722657 36.964844-10.957031 53.21875-21.167969 9.054688-.46875 16.664063.625 22.597656 3.296875 9.296876 4.183594 17.382813 17.671875 24.515626 29.574219 5.164062 8.613281 10.042968 16.753906 15.636718 22.246094 2.996094 2.941406 6.621094 5.394531 10.703125 6.511718 4.953125 1.355469 10.039063.386719 14.425781-2.1875 4.335938-2.542968 9.710938-7.734375 10.71875-18.046875 2.769532-28.445312-30.183593-77.210937-44.835937-90.179687-1.027344-.910156-2.144531-1.757813-3.332031-2.550782.121094-.207031.238281-.414062.359375-.621093 11.371093-2.753907 20.949219-2.96875 28.488281-.621094 9.734375 3.027344 19.386719 15.441406 27.90625 26.394531 6.167969 7.929688 11.988281 15.417969 18.210938 20.195313 3.476562 2.671875 7.578124 4.730469 11.976562 5.246093 4.890625.574219 9.613281-1.03125 13.488281-3.988281 3.996094-3.046875 8.707031-8.851562 8.460938-19.207031-.683594-28.570312-39.285157-73-55.398438-84.105469-8.058593-5.558593-19.613281-7.617187-34.40625-6.1875.167969-5.902343-.132812-11.742187-.882812-17.488281 7.886719-1.78125 14.808593-2.019531 20.636719-.691406 9.9375 2.265625 20.523437 13.898437 29.867187 24.15625 6.761719 7.429687 13.144531 14.445312 19.714844 18.726562 3.820312 2.488282 8.269531 4.273438 12.875 4.316406 4.734375.042969 9.117187-1.90625 12.613281-5.03125 13.714844-12.242187 7.496094-35.375-17.507812-65.140624zm-408.523438 8.34375c-14.53125 3.3125-26.800781 16.792968-37.628906 28.6875-16.519532 18.148437-20.785156 19.882812-24.109375 16.914062-.6875-.609375-2.507813-2.238281-2.011719-7.089844 2.082031-20.46875 38.179688-58.722656 54.34375-68.105468 11.171875-6.488282 33.726562-.367188 47.34375 4.710937-.160156.261719-.324219.519531-.480469.785156-4.605469 7.804688-8.09375 16.101563-10.484375 24.714844-9.992187-2.214844-19.039062-2.429687-26.972656-.617187zm8.867188 80.132812c-14.230469 4.429688-25.421876 18.816406-35.292969 31.511719-15.0625 19.371093-19.1875 21.4375-22.730469 18.734375-.730469-.558594-2.667969-2.039063-2.554688-6.917969.492188-20.566406 33.523438-61.496094 48.910157-72.105469 5.398437-3.722656 14.992187-4.851562 27.339843-3.285156 1.609376 10.128906 4.539063 20.292969 8.785157 30.273438-9.121094-1.023438-17.3125-.4375-24.457031 1.789062zm65.140624 53.246094c-3.640624.785156-7.035156 1.867187-10.160156 3.273437-13.589844 6.113281-22.960937 21.75-31.230468 35.542969-12.613282 21.046875-16.453126 23.59375-20.300782 21.339844-.792968-.464844-2.898437-1.699219-3.371094-6.554688-1.992187-20.476562 25.851563-65.097656 39.847657-77.488281.515625-.457031 1.101562-.886719 1.722656-1.300781 6.890625 9.300781 14.78125 17.738281 23.492187 25.1875zm-22.746093-175.792969-15.683594-35.800781c6.65625-1.59375 13.09375-4.300782 19.191406-8.117188.378907-.234375.734375-.484375 1.101563-.722656l12.988281 29.371094c-6.515625 4.632812-12.390625 9.734375-17.597656 15.269531zm265.226562-167.597656c4.152344-3.492188 6.453125-3.707031 6.835938-3.574219 2.484375.851562 2.648437 5.28125 2.082031 15.546875-.339844 6.183594-.726562 13.191406.699219 19.636719 1.738281 7.859375 7.300781 14.230468 14.882812 17.039062 7.578125 2.808594 15.949219 1.609375 22.390625-3.214844 5.28125-3.957031 9.558594-9.523437 13.335938-14.4375 6.261718-8.148437 9.269531-11.394531 11.710937-10.425781.382813.152344 1.984375 1.8125 2.851563 7.167969 3.152344 19.429688-7.890625 61.527344-29.609375 79.867188-10.582031 8.933593-22.660157 12.40625-35.917969 10.320312h.003906c-6.320312-.996094-12.460937-3.339844-18.257812-6.96875-11.699219-7.3125-18.445313-17.484375-20.632813-31.09375-4.507812-28.066406 14.566407-67.183594 29.625-79.863281zm-31.042969 152.332031 12.988282-29.375c.371094.238281.726562.488281 1.101562.726562 6.097656 3.8125 12.539063 6.519532 19.191406 8.117188l-15.683593 35.804688c-5.207031-5.539063-11.082031-10.640626-17.597657-15.273438zm20.0625 167.175781c13.996094 12.386719 41.839844 57.007813 39.84375 77.484375-.472656 4.855469-2.578124 6.089844-3.371093 6.554688-3.84375 2.257812-7.6875-.296875-20.300781-21.339844-8.265626-13.792969-17.636719-29.425781-31.230469-35.542969-3.128907-1.410156-6.535157-2.496093-10.1875-3.277343 8.816406-7.558594 16.707031-16.035157 23.511719-25.191407.625.417969 1.214843.847657 1.734374 1.3125zm51.589844-58.140625c15.390625 10.609375 48.417969 51.539063 48.910156 72.105469.117188 4.878906-1.824218 6.359375-2.550781 6.917969-3.546875 2.699218-7.664062.640625-22.730469-18.734375-9.875-12.691407-21.0625-27.082031-35.292968-31.511719-7.152344-2.226562-15.34375-2.8125-24.46875-1.789062 4.257812-10.007813 7.1875-20.167969 8.800781-30.273438 12.34375-1.566406 21.9375-.4375 27.332031 3.285156zm0 0"/><path d="m221.578125 188.355469c-4.101563-.632813-7.933594 2.167969-8.570313 6.265625-.207031 1.339844-1.777343 13.371094 7.050782 23.679687 7.402344 8.636719 19.492187 13.019531 35.933594 13.019531 16.445312 0 28.53125-4.382812 35.933593-13.019531 8.828125-10.308593 7.261719-22.339843 7.050781-23.679687-.632812-4.09375-4.46875-6.902344-8.566406-6.265625-4.09375.640625-6.898437 4.472656-6.261718 8.570312.007812.0625.773437 6.480469-3.621094 11.609375-4.355469 5.085938-12.839844 7.773438-24.535156 7.773438-11.582032 0-20.023438-2.640625-24.414063-7.632813-4.53125-5.164062-3.761719-11.570312-3.738281-11.75.636718-4.097656-2.167969-7.929687-6.261719-8.570312zm0 0"/></svg>