<svg height="511pt" viewBox="0 -13 511.99993 511" width="511pt" xmlns="http://www.w3.org/2000/svg"><path d="m468.675781 392.710938c50.683594-164.074219-54.976562-291.347657-54.976562-291.347657 7.488281-15.964843 25.304687-25.894531 42.257812-31.953125 13.601563-4.863281 14.019531-23.847656.65625-29.335937-69.230469-28.433594-120.042969 1.953125-120.042969 1.953125-101.195312-70.4375-204.625-13.820313-228.25 25.855468-23.628906 39.675782-43.246093 30.316407-81.582031 50.375-14.378906 7.523438-18.757812 17.714844-18.609375 27.511719.257813 17.507813 15 31.339844 32.511719 31.382813 328.25.75 380.109375 209.320312 380.109375 209.320312s-40.277344 6.324219-60.582031 55.015625c-4.164063 9.980469 6.441406 19.671875 15.972656 14.554688 15.664063-8.402344 37.128906-15.84375 59.597656-11.28125 20.566407 4.179687 36.773438 17.007812 48.210938 29.515625 7.449219 8.140625 20.945312 2.132812 19.867187-8.851563-2.457031-25.003906-10.703125-56.316406-35.140625-72.714843zm0 0" fill="#8bcaff"/><path d="m501.015625 447.171875c-4.179687 4.636719-12.011719 5.628906-17.066406.105469-11.4375-12.507813-27.644531-25.335938-48.210938-29.515625-22.46875-4.5625-43.933593 2.875-59.597656 11.28125-3.476563 1.867187-7.09375 1.757812-10.089844.382812-2.089843 3.703125-4.066406 7.710938-5.882812 12.0625-4.164063 9.980469 6.441406 19.671875 15.972656 14.554688 15.664063-8.40625 37.128906-15.84375 59.597656-11.28125 20.566407 4.179687 36.773438 17.003906 48.210938 29.515625 7.449219 8.140625 20.945312 2.132812 19.867187-8.851563-.574218-5.828125-1.46875-12.003906-2.800781-18.253906zm0 0" fill="#60b8ff"/><path d="m219.417969 144.707031c-84.308594-14.710937-165.222657-3.398437-210.804688 6.089844 2.691407 15.058594 16.230469 26.316406 32.027344 26.355469 328.25.75 380.109375 209.320312 380.109375 209.320312-1.894531-138.851562-73.023438-219.378906-201.332031-241.765625zm0 0" fill="#ffe9c8"/><path d="m40.640625 177.152344c328.25.75 380.109375 209.320312 380.109375 209.320312-.15625-11.445312-.792969-22.492187-1.882812-33.144531-11.675782-34.484375-83.667969-202.503906-378.226563-203.175781-4.78125-.011719-9.347656-1.058594-13.476563-2.917969-.0625.011719-.117187.023437-.175781.03125-4.949219.875-9.636719 1.765625-14.027343 2.644531-1.480469.296875-2.933594.59375-4.347657.890625 2.691407 15.054688 16.230469 26.3125 32.027344 26.351563zm0 0" fill="#ffdca7"/><path d="m200.695312 131.460938s5.113282 156.953124 76.351563 168.875c36.730469 6.148437 15.710937-72.023438 55.867187-126.304688" fill="#8bcaff"/><path d="m294.429688 194.003906c-13.183594 41.828125-15.664063 87.929688-30.625 102.164063 4.140624 1.960937 8.546874 3.382812 13.242187 4.167969 36.730469 6.148437 15.710937-72.027344 55.867187-126.304688-16.148437-5.199219-33.386718 3.792969-38.484374 19.972656zm0 0" fill="#60b8ff"/><path d="m29.664062 124.636719c12.066407-6.316407 22.363282-9.640625 31.449219-12.574219 19.292969-6.226562 35.957031-11.605469 53.304688-40.742188 5.808593-9.75 17.09375-20.507812 30.964843-29.519531 16.203126-10.527343 35.105469-18.324219 54.65625-22.550781 31.859376-6.882812 80.699219-7.535156 132.433594 28.476562 2.425782 1.6875 5.617188 1.796876 8.15625.28125.476563-.285156 48.457032-28.21875 113.617188-1.457031 6.914062 2.839844 6.722656 12.851563-.332032 15.371094-23.746093 8.488281-39.4375 20.574219-46.636718 35.917969-1.234375 2.632812-.835938 5.75 1.019531 7.992187.089844.113281 9.351563 11.367188 20.832031 31.042969 2.089844 3.585938 6.695313 4.796875 10.28125 2.703125 3.585938-2.089844 4.796875-6.695313 2.707032-10.28125-8.144532-13.957031-15.171876-23.828125-19.050782-28.972656 7.867188-12.144531 23.546875-19.824219 35.90625-24.242188 9.164063-3.277343 15.230469-11.660156 15.457032-21.359375.222656-9.710937-5.457032-18.378906-14.46875-22.082031-61.167969-25.121094-108.449219-6.769531-122.695313.15625-54.765625-36.46875-106.410156-35.589844-140.402344-28.242187-21.316406 4.605468-41.953125 13.125-59.671875 24.636718-15.96875 10.371094-28.644531 22.601563-35.691406 34.4375-14.449219 24.261719-26.605469 28.183594-45.007812 34.125-9.65625 3.117188-20.601563 6.652344-33.800782 13.558594-19.019531 9.953125-22.835937 24.171875-22.68749975 34.347656.31249975 21.382813 18.30078175 38.816406 40.09374975 38.867188 24.265625.054687 47.914063 1.277344 70.28125 3.632812 4.070313.425782 7.832032-2.613281 8.261719-6.691406.429687-4.074219-2.617187-7.835938-6.691406-8.265625-22.875-2.40625-47.035157-3.65625-71.816407-3.714844-13.644531-.03125-24.898437-10.820312-25.09375-24.050781-.128906-8.78125 4.65625-15.585938 14.625-20.800781zm0 0"/><path d="m511.902344 465.253906c-2.375-24.1875-10.265625-56.160156-33.984375-75.078125 28.097656-96.546875 4-180.195312-21.472657-233.738281-1.785156-3.75-6.273437-5.34375-10.019531-3.558594-3.75 1.785156-5.34375 6.269532-3.558593 10.019532 24.773437 52.074218 48.203124 133.898437 19.140624 227.976562-.980468 3.175781.238282 6.613281 2.996094 8.464844 22.398438 15.027344 29.730469 44.9375 31.933594 67.386718.371094 3.761719-4.320312 5.863282-6.882812 3.058594-15.832032-17.308594-33.453126-28.03125-52.382813-31.878906-20.089844-4.078125-42.496094.085938-64.792969 12.050781-3.304687 1.773438-6.9375-1.667969-5.515625-5.074219 18.359375-44.03125 53.503907-50.371093 54.957031-50.613281 4.292969-.675781 7.179688-5.019531 6.128907-9.242187-.339844-1.363282-8.644531-33.839844-38.492188-73.527344-2.496093-3.320312-7.210937-3.984375-10.53125-1.488281-3.316406 2.496093-3.984375 7.207031-1.488281 10.527343 18.40625 24.472657 29.078125 47.730469 33.746094 61.0625-13.941406 4.683594-41.988282 18.613282-58.199219 57.496094-3.148437 7.546875-1.277344 15.972656 4.769531 21.457032 6.027344 5.464843 14.558594 6.503906 21.734375 2.652343 13.367188-7.171875 33.710938-14.828125 54.691407-10.5625 15.742187 3.195313 30.640624 12.378907 44.28125 27.289063 5.523437 6.042968 14.285156 7.886718 21.777343 4.546875 7.597657-3.390625 11.980469-10.933594 11.164063-19.226563zm0 0"/><path d="m359.082031 298.078125c2.792969 2.992187 7.632813 3.160156 10.625.367187 3.035157-2.835937 3.199219-7.59375.367188-10.628906-16.179688-17.335937-34.765625-33.078125-55.300781-46.84375 3.992187-20.664062 10.183593-43.4375 24.371093-62.621094 2.472657-3.335937 1.765625-8.042968-1.570312-10.511718-3.339844-2.472656-8.046875-1.765625-10.515625 1.570312-20.203125 27.3125-25.640625 59.519532-30.007813 85.398438-5.351562 31.6875-8.292969 40.015625-18.710937 38.273437-32.824219-5.496093-50.171875-48.34375-58.941406-83.320312-9.929688-39.59375-11.3125-78.410157-11.324219-78.796875-.136719-4.152344-3.59375-7.414063-7.761719-7.269532-4.148438.136719-7.402344 3.609376-7.265625 7.757813.082031 2.578125 1.035156 27.574219 6.570313 58.015625-18.320313-5.046875-37.589844-9.191406-57.476563-12.316406-4.105469-.648438-7.949219 2.160156-8.59375 6.261718-.644531 4.101563 2.160156 7.949219 6.257813 8.59375 22.035156 3.460938 43.261718 8.195313 63.210937 14.0625 10.289063 44.976563 31.0625 94.847657 72.84375 101.839844 1.582031.265625 3.273437.433594 5.027344.433594 7.648437 0 16.421875-3.1875 22.175781-15.253906 4.296875-9.007813 6.390625-21.414063 8.816406-35.78125.003906-.023438.007813-.050782.011719-.074219 17.40625 12.203125 33.25 25.902344 47.191406 40.84375zm0 0"/><path d="m151.445312 105.695312c0 10.710938 6.746094 19.101563 15.359376 19.101563 8.613281 0 15.359374-8.390625 15.359374-19.101563 0-10.707031-6.746093-19.097656-15.359374-19.097656-8.613282 0-15.359376 8.390625-15.359376 19.097656zm0 0"/></svg>