<svg height="511pt" viewBox="0 -21 511.9998 511" width="511pt" xmlns="http://www.w3.org/2000/svg"><path d="m214.011719 61.933594c14.308593-13.425782 33.757812-27.601563 56.027343-33.050782-17.816406-12.765624-43.167968-23.957031-74.769531-19.707031-38.28125 5.15625-64.160156 34.570313-79.101562 58.234375 42.78125-16.5 78.359375-11.15625 97.84375-5.476562zm0 0" fill="#d8d1d7"/><path d="m239.972656 13.339844c-22.707031 9.988281-41.730468 27.1875-55.941406 43.359375 12.125.816406 22.304688 2.996093 29.980469 5.234375v.003906c14.3125-13.429688 33.761719-27.605469 56.027343-33.054688-8.394531-6.015624-18.464843-11.675781-30.066406-15.542968zm0 0" fill="#cac0c9"/><path d="m312.976562 30.664062c-39.824218-13.75-76.003906 9.730469-98.964843 31.269532-23.410157-6.824219-70.039063-13.191406-124.496094 18.261718-76.117187 43.964844-102.546875 128.699219-64.445313 355.632813 3.03125 18.054687 20.5 30.167969 38.394532 26.289063.292968-.0625.585937-.128907.878906-.199219 16.007812-3.75 26.59375-19.015625 24.617188-35.339844l-10.933594-90.203125s68.296875 40.636719 149.800781-16.617188c67.472656 42.8125 145.019531-21.875 158.222656-100.398437 15.253907-90.734375-5.621093-165.410156-73.074219-188.695313zm0 0" fill="#e6e2e6"/><path d="m497.882812 223.753906c-21.460937-82.867187-58.625-117.25-115.410156-118.191406 9.929688 31.914062 10.757813 71.074219 3.578125 113.796875-13.203125 78.523437-90.746093 143.207031-158.21875 100.402344-1.945312 1.320312-3.886719 2.667969-5.863281 3.945312-26.433594 17.210938-51.3125 24.316407-72.710938 26.144531 6.542969 21.882813 17.253907 55.925782 29.691407 88.804688 5.507812 14.558594 19.457031 24.1875 35.023437 24.1875h12.757813c17.257812 0 32.28125-11.796875 36.375-28.566406l5.34375-21.894532h105.476562l5.347657 21.894532c4.089843 16.769531 19.117187 28.566406 36.375 28.566406h14.203124c14.6875 0 28.03125-8.574219 34.089844-21.953125 19.015625-41.984375 54.785156-136.644531 33.941406-217.136719zm0 0" fill="#d8d1d7"/><path d="m497.882812 223.753906c-21.460937-82.867187-58.625-117.25-115.410156-118.191406.375 1.203125.710938 2.4375 1.058594 3.660156 41.265625 10.824219 69.648438 46.183594 87.351562 114.53125 20.84375 80.488282-14.925781 175.148438-33.941406 217.136719-5.171875 11.417969-15.660156 19.316406-27.753906 21.390625 2.105469.367188 4.265625.5625 6.460938.5625h14.199218c14.6875 0 28.03125-8.574219 34.089844-21.953125 19.019531-41.984375 54.789062-136.644531 33.945312-217.136719zm0 0" fill="#cac0c9"/><path d="m79.289062 346.785156c-.179687-.039062-.355468-.082031-.53125-.125-13.222656-3.148437-25.542968 7.789063-23.90625 21.28125l7.109376 58.640625c1.71875 14.171875-6.042969 27.542969-18.597657 33.277344 6.066407 2.824219 13.046875 3.789063 20.101563 2.257813.289062-.0625.582031-.128907.878906-.195313 16.007812-3.753906 26.59375-19.015625 24.617188-35.339844zm0 0" fill="#d8d1d7"/><path d="m312.976562 30.664062c-13.105468-4.527343-25.816406-5-37.792968-2.855468 3.5625.664062 7.164062 1.597656 10.792968 2.855468 67.453126 23.285157 88.328126 97.960938 73.074219 188.699219-9.417969 55.992188-51.550781 104.933594-99.417969 112.898438 58.148438 9.929687 115.257813-46.542969 126.417969-112.898438 15.253907-90.738281-5.621093-165.414062-73.074219-188.699219zm0 0" fill="#d8d1d7"/><path d="m386.050781 219.359375c-13.203125 78.523437-90.746093 143.207031-158.21875 100.402344-1.945312 1.320312-3.886719 2.667969-5.863281 3.945312-26.433594 17.210938-51.3125 24.316407-72.710938 26.144531 2.316407 7.753907 5.164063 17.042969 8.421876 27.261719 21.050781-1.210937 46.628906-8.679687 75.410156-28.902343 67.472656 42.8125 157.480468-26.144532 170.683594-104.664063 9.09375-54.074219 5.347656-102.4375-13.433594-137.625-2.578125-.195313-5.199219-.3125-7.863282-.355469 9.925782 31.914063 10.753907 71.070313 3.574219 113.792969zm0 0" fill="#cac0c9"/><path d="m30.394531 140.683594c3.554688 2.03125 8.21875.757812 10.246094-2.792969 12.113281-21.191406 29.265625-37.996094 52.441406-51.382813 43.597657-25.179687 81.84375-25.023437 106.058594-20.570312-10.425781 11.125-16.515625 19.96875-16.90625 20.539062-2.335937 3.421876-1.457031 8.089844 1.964844 10.429688s8.09375 1.460938 10.4375-1.960938c.539062-.785156 54.695312-78.582031 115.953125-57.429687 30.253906 10.441406 51.453125 32.164063 63.007812 64.558594 10.980469 30.789062 12.777344 70.902343 5.191406 116.011719-5.175781 30.78125-20.976562 60.273437-43.355468 80.914062-3.046875 2.8125-3.242188 7.5625-.429688 10.609375 2.773438 3.007813 7.601563 3.203125 10.609375.429687 24.777344-22.855468 42.269531-55.460937 47.984375-89.460937 6.742188-40.09375 6.371094-76.707031-.976562-107.09375 33.421875 3.28125 57.722656 20.339844 75.933594 53.085937 1.988281 3.574219 6.632812 4.90625 10.210937 2.914063 3.625-2.015625 4.929687-6.589844 2.914063-10.210937-21.636719-38.902344-52.289063-58.949219-93.574219-61.175782-.121094-.355468-.242188-.714844-.367188-1.070312-12.976562-36.382813-37.960937-61.871094-72.25-73.707032-14.148437-4.886718-28.875-5.757812-43.808593-2.699218-23.808594-16.160156-50.527344-22.78125-77.480469-19.15625-40.015625 5.386718-67.148438 34.921875-83.191407 59.628906-8.257812 3.308594-16.753906 7.394531-25.4375 12.410156-25.539062 14.75-44.496093 33.371094-57.964843 56.933594-2.058594 3.601562-.808594 8.1875 2.789062 10.246094zm165.804688-124.332032c19.617187-2.640624 38.53125.828126 56.402343 10.285157-10.632812 4.503906-21.292968 10.9375-31.847656 19.300781-3.101562 2.453125-6.039062 4.953125-8.816406 7.449219-17.175781-4.433594-44.179688-7.933594-76.5625-.105469 14.425781-17.246094 34.5625-33.394531 60.824219-36.929688zm0 0"/><path d="m126.835938 248.519531c0 10.617188 6.695312 18.929688 15.238281 18.929688 8.546875 0 15.238281-8.3125 15.238281-18.929688 0-10.613281-6.691406-18.925781-15.238281-18.925781s-15.238281 8.3125-15.238281 18.925781zm0 0"/><path d="m505.421875 221.847656c-3.195313-12.34375-6.800781-23.835937-10.714844-34.164062-1.472656-3.878906-5.804687-5.832032-9.683593-4.359375-3.878907 1.46875-5.832032 5.804687-4.359376 9.679687 3.722657 9.820313 7.160157 20.792969 10.222657 32.609375 20.570312 79.429688-16.613281 175-33.550781 212.402344-4.835938 10.671875-15.546876 17.566406-27.289063 17.566406h-14.21875c-13.863281 0-25.839844-9.402343-29.125-22.867187l-5.351563-21.921875c-.820312-3.363281-3.832031-5.726563-7.292968-5.726563h-105.597656c-3.460938 0-6.476563 2.363282-7.292969 5.726563l-5.351563 21.921875c-3.289062 13.464844-15.265625 22.867187-29.125 22.867187h-12.769531c-12.394531 0-23.660156-7.78125-28.042969-19.359375-10.847656-28.679687-20.316406-58.035156-26.984375-79.890625 20.457031-3.054687 44.164063-10.878906 69.152344-27.558593 8.769531 4.988281 17.921875 8.5 27.4375 10.453124 5.796875 1.191407 11.667969 1.785157 17.574219 1.785157 15.757812 0 31.726562-4.21875 46.964844-12.492188 3.644531-1.980469 4.996093-6.539062 3.015624-10.183593-1.980468-3.644532-6.539062-4.992188-10.183593-3.015626-38.660157 21-78.644531 10.679688-109.703125-28.3125-2.546875-3.203124-7.347656-3.746093-10.550782-1.199218-3.199218 2.550781-3.746093 7.351562-1.195312 10.550781 7.289062 9.15625 15.007812 16.910156 23.101562 23.28125-29.328124 18.253906-59.816406 25.863281-90.761718 22.632813-25.5625-2.671876-41.941406-12.160157-42.085938-12.246094-5.257812-3.128906-12.027344 1.296875-11.292968 7.359375l10.945312 90.304687c1.527344 12.605469-6.597656 24.28125-18.902344 27.167969-7.023437 1.636719-14.492187.222656-20.328125-4.042969-5.242187-3.832031-8.800781-9.609375-9.871093-16.011718-21.6875-129.160157-22.757813-215.1875-3.371094-270.738282 1.367187-3.917968-.699219-8.199218-4.617188-9.5625-3.914062-1.367187-8.195312.699219-9.5625 4.613282-10.230468 29.320312-15.019531 65.425781-14.6406248 110.378906.3867188 45.570312 6.0742188 100.457031 17.3789068 167.792968 1.800781 10.730469 8 20.386719 17.011718 26.488282 9.234375 6.261718 20.585938 8.242187 31.425782 5.699218 19.773437-4.632812 32.835937-23.375 30.382812-43.59375l-9.332031-77.003906c8.199219 3.132813 19.996093 6.644532 34.5 8.242188 6.578125.726562 14.054687 1.074218 22.265625.699218 6.769531 22.347657 16.703125 53.378907 28.179687 83.714844 6.574219 17.382813 23.488281 29.0625 42.085938 29.0625h12.769531c20.804688 0 38.78125-14.113281 43.714844-34.324218l3.953125-16.191407h93.804687l3.953125 16.191407c4.933594 20.210937 22.910157 34.324218 43.710938 34.324218h14.21875c17.628906 0 33.710937-10.355468 40.96875-26.386718 9.953125-21.976563 23.660156-56.414063 32.445312-95.695313 10.6875-47.8125 11.351563-90.429687 1.964844-126.667969zm0 0"/></svg>