<svg height="511pt" viewBox="-30 0 511 511.99812" width="511pt" xmlns="http://www.w3.org/2000/svg"><path d="m442.980469 425.96875c-1.082031-10.464844-32.878907-15.945312-57.167969-18.613281-12.242188 18.449219-33.824219 29.9375-70.003906 36.117187 23.636718 17.632813 33.097656 45.21875 42.601562 46.132813 11.402344 1.097656 11.273438-12.433594 17.855469-17.554688 6.582031-5.117187 27.460937 1.867188 32.183594-2.191406 7.339843-6.304687 0-14.996094 7.679687-24.136719 7.679688-9.144531 28.335938-5.386718 26.851563-19.753906zm0 0" fill="#98db7c"/><path d="m65.925781 407.355469c-24.289062 2.667969-56.089843 8.148437-57.167969 18.613281-1.484374 14.371094 19.171876 10.609375 26.851563 19.753906 7.679687 9.140625.34375 17.832032 7.679687 24.136719 4.726563 4.058594 25.601563-2.925781 32.183594 2.191406 6.582032 5.121094 6.453125 18.652344 17.855469 17.554688 9.503906-.914063 18.964844-28.5 42.601563-46.132813-36.179688-6.179687-57.761719-17.667968-70.003907-36.117187zm0 0" fill="#98db7c"/><path d="m421.757812 210.558594c22.195313-72.652344-41.828124-193.824219-97.785156-201.703125-35.542968-5.003907-54.160156 23.582031-54.160156 23.582031h-87.886719s-18.617187-28.585938-54.160156-23.582031c-55.957031 7.878906-119.980469 129.050781-97.785156 201.703125 8.828125 28.894531 27.242187 49.648437 49.390625 64.5625h-.015625c-13.191407 28.738281-30.328125 73.429687-24.921875 102.125 10.015625 53.144531 50.734375 71.996094 171.4375 71.996094 120.699218 0 161.417968-18.851563 171.433594-71.996094 5.40625-28.695313-11.730469-73.386719-24.921876-102.125h-.015624c22.148437-14.917969 40.5625-35.671875 49.390624-64.5625zm0 0" fill="#aee295"/><path d="m402.753906 409.585938c-5.738281-.898438-11.527344-1.636719-16.941406-2.230469-12.242188 18.449219-33.824219 29.9375-70.003906 36.117187 9.417968 7.027344 16.582031 15.632813 22.402344 23.503906 38.429687-10.003906 56.914062-28.1875 64.542968-57.390624zm0 0" fill="#82d361"/><path d="m113.527344 466.976562c5.820312-7.871093 12.984375-16.476562 22.402344-23.503906-36.179688-6.179687-57.761719-17.667968-70.003907-36.117187-5.414062.59375-11.199219 1.332031-16.9375 2.230469 7.625 29.203124 26.109375 47.386718 64.539063 57.390624zm0 0" fill="#82d361"/><path d="m225.871094 422.242188c-120.34375 0-161.175782-18.742188-171.34375-71.523438-1.355469 9.605469-1.574219 18.667969-.09375 26.527344 10.015625 53.144531 50.734375 71.996094 171.4375 71.996094 120.699218 0 161.417968-18.851563 171.433594-71.996094 1.480468-7.859375 1.261718-16.921875-.09375-26.527344-10.167969 52.78125-51 71.523438-171.339844 71.523438zm0 0" fill="#98db7c"/><path d="m132.804688 369.804688s5.816406 46.171874 32.152343 96.792968c0 0-30.101562 19.835938-27.023437 27.363282 3.078125 7.523437 18.8125-1.371094 24.628906 0 5.8125 1.367187 8.273438 9.96875 13.800781 9.765624 5.53125-.207031 14.496094-8.324218 17.914063-8.324218 3.414062 0 17.121094 8.554687 20.484375 6.726562 4.867187-2.644531-4.300781-25.117187-13.214844-35.234375 0 0 8.074219-81.503906 8.074219-82.105469" fill="#aee295"/><path d="m318.933594 369.804688s-5.8125 46.171874-32.148438 96.792968c0 0 30.097656 19.835938 27.019532 27.363282-3.078126 7.523437-18.8125-1.371094-24.628907 0-5.8125 1.367187-8.273437 9.96875-13.800781 9.765624-5.53125-.207031-14.496094-8.324218-17.914062-8.324218-3.414063 0-17.121094 8.554687-20.484376 6.726562-4.867187-2.644531 4.300782-25.117187 13.214844-35.234375 0 0-8.074218-81.503906-8.074218-82.105469" fill="#aee295"/><path d="m451.113281 425.710938c-1.222656-11.839844-17.195312-19.191407-52.871093-24.015626 3.070312-6.742187 5.378906-14.257812 6.964843-22.6875 2.097657-11.128906 1.316407-25.109374-2.316406-41.546874-.898437-4.058594-4.914063-6.621094-8.96875-5.722657-4.058594.898438-6.617187 4.914063-5.722656 8.96875 3.195312 14.445313 3.941406 26.394531 2.222656 35.515625-5.871094 31.160156-22.042969 52.5625-81.855469 61.386719 14.207032-36.679687 17.917969-65.007813 18.109375-66.519531.515625-4.121094-2.402343-7.882813-6.523437-8.402344-4.113282-.523438-7.886719 2.398438-8.40625 6.523438-.054688.449218-5.957032 45.542968-31.453125 94.550781-1.78125 3.417969-.6875 7.628906 2.535156 9.75 7.867187 5.1875 15.566406 11.320312 20.082031 15.792969-.84375-.203126-1.640625-.40625-2.285156-.574219-4.644531-1.183594-9.027344-2.308594-12.980469-1.378907-5.09375 1.199219-8.289062 4.820313-10.621093 7.464844-.539063.609375-1.277344 1.449219-1.816407 1.960938-1.707031-.609375-4.792969-2.515625-6.5625-3.605469-4.148437-2.554687-7.421875-4.570313-11.089843-4.570313-2.890626 0-5.757813 1.25-11 3.644532-.558594.253906-1.230469.5625-1.953126.886718 2.140626-6.226562 6.441407-15.101562 11.308594-20.625 1.378906-1.570312 2.046875-3.640624 1.839844-5.71875-2.171875-21.925781-7.824219-79.085937-8.078125-82.070312-.238281-3.941406-3.507813-7.0625-7.507813-7.0625-4.15625 0-7.523437 3.371094-7.523437 7.523438 0 .441406 0 .867187 5.558594 57.023437-4.640625.066406-9.421875.101563-14.332031.101563-4.910157 0-9.691407-.039063-14.328126-.101563 5.554688-56.152344 5.554688-56.582031 5.554688-57.023437 0-4.152344-3.367188-7.523438-7.523438-7.523438-3.996093 0-7.265624 3.121094-7.507812 7.0625-.25 2.988281-5.902344 60.144531-8.078125 82.070312-.207031 2.078126.460937 4.148438 1.84375 5.71875 4.867187 5.523438 9.164063 14.398438 11.304687 20.625-.71875-.324218-1.390624-.632812-1.949218-.886718-5.242188-2.394532-8.113282-3.644532-11.003906-3.644532-3.667969 0-6.941407 2.015626-11.085938 4.570313-1.785156 1.101563-4.910156 3.027344-6.550781 3.617187-.542969-.511718-1.289063-1.355468-1.832031-1.972656-2.332032-2.644531-5.527344-6.265625-10.617188-7.464844-3.957031-.929687-8.339844.191407-12.984375 1.378907-.644531.164062-1.4375.367187-2.277344.570312 4.515625-4.46875 12.210938-10.597656 20.078125-15.789062 3.21875-2.121094 4.3125-6.332031 2.53125-9.75-25.421875-48.867188-31.394531-94.105469-31.453125-94.554688-.523437-4.121093-4.28125-7.039062-8.402343-6.519531-4.125.519531-7.042969 4.28125-6.523438 8.402344.191406 1.515625 3.902344 29.859375 18.117188 66.554687-44.917969-6.378906-74.121094-20.308593-81.867188-61.421875-.609375-3.226562-.910156-6.859375-.894531-10.804687.011719-4.152344-3.34375-7.53125-7.5-7.546875-.007813 0-.015625 0-.023438 0-4.144531 0-7.507812 3.351562-7.523437 7.496094-.015625 4.890624.375 9.480468 1.15625 13.640624 1.589844 8.429688 3.898437 15.945313 6.96875 22.6875-35.675782 4.824219-51.648438 12.175782-52.871094 24.011719-1.523438 14.757813 11.222656 18.636719 18.839844 20.953125 4 1.21875 8.136718 2.476563 9.8125 4.46875 2.0625 2.457032 2.179687 4.617188 2.222656 8.542969.042969 4.453125.113281 11.1875 6.339844 16.535156 4.644531 3.988281 11.679687 3.34375 19.828125 2.597657 3.804687-.347657 10.855469-.996094 12.828125-.089844 1.058594.902344 2.222656 3.222656 3.253906 5.28125 2.652344 5.277344 6.984375 13.90625 17.804688 13.90625.671874 0 1.371093-.035156 2.097656-.105469 7.925781-.761719 13.132812-8.15625 20.339844-18.390625 6.023437-8.550781 13.417968-19.035156 23.703124-27.410156 3.898438.617187 7.957032 1.175781 12.175782 1.683594 1.636718 3.65625 3.378906 7.363281 5.226562 11.109374-2.800781 2.011719-6.34375 4.65625-9.824218 7.535157-9.191407 7.597656-18.109376 16.53125-14.5625 25.199219 4.425781 10.820312 17.242187 7.542968 24.125 5.785156 1.894531-.484375 4.691406-1.199219 5.890624-1.253906.660157.398437 1.925782 1.832031 2.703126 2.714843 2.550781 2.894531 6.375 7.230469 12.566406 7.230469.164062 0 .332031-.003906.5-.011719 5.042968-.1875 10.0625-3.277343 14.492187-6.007812 1.027344-.632813 2.433594-1.5 3.429688-2.039063 1.257812.5 3.140625 1.363282 4.511719 1.988282 7.554687 3.453124 14.082031 6.4375 19.390624 3.550781 1.550782-.839844 4.269532-2.921875 5.058594-7.398438 1.640625-9.265625-6.71875-27.082031-14.117187-36.878906.273437-2.753906.535156-5.40625.789062-7.972656 5.101563.078125 10.386719.117187 15.816407.117187 5.429687 0 10.714843-.042968 15.816406-.117187.253906 2.5625.519531 5.207031.789062 7.953125-3.480468 4.558594-6.917968 10.511718-9.675781 16.824218-2.597656 5.933594-5.472656 14.234376-4.441406 20.074219.792969 4.472657 3.507812 6.554688 5.058593 7.398438 5.3125 2.886719 11.835938-.097657 19.394532-3.554688 1.371094-.625 3.253906-1.484375 4.511718-1.984375.992188.535156 2.398438 1.402344 3.429688 2.039063 4.425781 2.726562 9.445312 5.820312 14.488281 6.007812.171875.003907.335938.007813.5.007813 6.191407 0 10.015625-4.335938 12.566407-7.230469.789062-.890625 2.078124-2.355469 2.679687-2.714844 1.1875.046875 4.007813.765625 5.914063 1.253907 6.886718 1.761718 19.703124 5.039062 24.128906-5.78125 3.546875-8.671876-5.371094-17.605469-14.5625-25.199219-3.484375-2.878907-7.023438-5.523438-9.828125-7.539063 1.851562-3.742187 3.589843-7.449218 5.226562-11.109375 4.222657-.503906 8.277344-1.066406 12.179688-1.683593 10.285156 8.375 17.679687 18.863281 23.699219 27.410156 7.210937 10.238281 12.417968 17.632812 20.34375 18.394531.722656.070313 1.421874.101563 2.09375.101563 10.820312 0 15.15625-8.625 17.804687-13.90625 1.03125-2.054688 2.199219-4.375 3.253906-5.277344 1.976563-.910156 9.023438-.261719 12.832031.085937 8.144532.75 15.183594 1.394531 19.824219-2.59375 6.230469-5.351562 6.296875-12.082031 6.34375-16.535156.039063-3.925781.15625-6.085937 2.21875-8.542969 1.675781-1.996094 5.8125-3.253906 9.8125-4.46875 7.617188-2.316406 20.367188-6.195312 18.84375-20.949218zm-349.417969 45.03125c-3.28125 4.65625-7.742187 10.996093-9.796874 12.109374-1.378907.105469-1.992188-.214843-4.703126-5.609374-1.777343-3.535157-3.792968-7.546876-7.554687-10.476563-5.847656-4.546875-14.742187-3.730469-23.347656-2.941406-2.949219.269531-7.257813.664062-9.15625.433593-.445313-.652343-.5625-1.683593-.59375-4.738281-.046875-4.527343-.117188-11.367187-5.742188-18.0625-4.546875-5.414062-11.136719-7.421875-16.953125-9.191406-7.71875-2.347656-8.382812-3.066406-8.300781-4.535156 1.03125-1.113281 8.398437-7.375 46.339844-11.933594 4.417969 5.773437 9.703125 10.808594 15.949219 15.210937 10.703124 7.550782 24.277343 13.265626 41.597656 17.410157-7.4375 7.707031-13.164063 15.832031-17.738282 22.324219zm326.195313-38.472657c-5.816406 1.769531-12.40625 3.773438-16.953125 9.1875-5.628906 6.695313-5.699219 13.535157-5.746094 18.0625-.027344 3.054688-.148437 4.089844-.59375 4.738281-1.898437.230469-6.203125-.164062-9.152344-.433593-8.601562-.789063-17.5-1.605469-23.347656 2.941406-3.765625 2.929687-5.78125 6.941406-7.554687 10.476563-2.710938 5.394531-3.328125 5.714843-4.703125 5.609374-2.054688-1.113281-6.515625-7.453124-9.796875-12.109374-4.574219-6.492188-10.300781-14.617188-17.738281-22.324219 17.320312-4.144531 30.890624-9.855469 41.597656-17.40625 6.242187-4.40625 11.53125-9.4375 15.949218-15.214844 37.9375 4.558594 45.308594 10.820313 46.335938 11.933594.085938 1.46875-.578125 2.191406-8.296875 4.539062zm0 0"/><path d="m63.148438 272.832031c2.050781 1.683594 4.171874 3.324219 6.355468 4.929688-6.8125 15.375-14.992187 36.039062-19.808594 56.027343-.949218 3.933594 1.5 8.011719 5.410157 9.039063 4.023437 1.054687 8.242187-1.476563 9.214843-5.515625 4.328126-17.953125 11.59375-36.648438 17.914063-51.125 12.246094 7.332031 26.101563 13.609375 41.445313 18.734375 3.890624 1.300781 8.222656-.863281 9.519531-4.75 1.316406-3.941406-.808594-8.203125-4.75-9.519531-49.273438-16.46875-80.179688-44.199219-91.859375-82.425782-6.023438-19.710937-5.574219-44.636718 1.296875-72.082031 1.007812-4.03125-1.441407-8.117187-5.46875-9.125-4.023438-1.007812-8.117188 1.441407-9.125 5.46875-7.535157 30.101563-7.910157 57.808594-1.089844 80.132813 7.203125 23.582031 20.980469 43.839844 40.945313 60.210937zm0 0"/><path d="m37.078125 112.59375c3.863281 1.515625 8.230469-.386719 9.75-4.253906 19.554687-49.839844 53.910156-88.855469 81.695313-92.769532 30.265624-4.257812 46.316406 19.332032 46.964843 20.3125 1.390625 2.128907 3.761719 3.414063 6.304688 3.414063h88.152343c2.542969 0 4.914063-1.285156 6.304688-3.414063.160156-.246093 16.421875-24.609374 46.96875-20.3125 19.191406 2.703126 42.042969 22.203126 61.125 52.160157 13.726562 21.542969 24.449219 46.839843 30.191406 71.230469 6.203125 26.328124 6.414063 50.28125.613282 69.265624-11.675782 38.226563-42.582032 65.960938-91.855469 82.425782-3.738281 1.25-5.910157 5.3125-4.875 9.113281 1.121093 4.113281 5.597656 6.507813 9.640625 5.15625 15.34375-5.125 29.203125-11.402344 41.445312-18.734375 4.007813 9.164062 7.535156 18.046875 10.507813 26.488281 1.433593 4.070313 6.160156 6.121094 10.117187 4.390625 3.558594-1.558594 5.363282-5.726562 4.074219-9.386718-3.355469-9.523438-7.375-19.566407-11.96875-29.917969 2.183594-1.601563 4.304687-3.246094 6.355469-4.925781 19.96875-16.375 33.742187-36.632813 40.949218-60.210938 14.539063-47.597656-5.851562-111.128906-32.507812-152.976562-21.734375-34.121094-47.875-55.617188-71.714844-58.972657-32.511718-4.574219-52.390625 15.308594-59.125 23.578125h-80.644531c-6.734375-8.269531-26.625-28.15625-59.121094-23.578125-17.425781 2.453125-35.886719 14.324219-53.398437 34.328125-15.886719 18.15625-30.164063 42.246094-40.207032 67.839844-1.515624 3.867188.390626 8.230469 4.257813 9.75zm0 0"/><path d="m191.363281 76.109375c-4.101562-.632813-7.949219 2.175781-8.585937 6.28125-.210938 1.339844-1.78125 13.402344 7.070312 23.734375 7.417969 8.660156 19.535156 13.050781 36.019532 13.050781 16.484374 0 28.601562-4.390625 36.019531-13.050781 8.847656-10.332031 7.277343-22.394531 7.066406-23.734375-.636719-4.105469-4.488281-6.914063-8.585937-6.28125-4.105469.640625-6.917969 4.484375-6.28125 8.589844.011718.0625.777343 6.496093-3.625 11.640625-4.367188 5.097656-12.871094 7.792968-24.597657 7.792968-11.609375 0-20.074219-2.648437-24.472656-7.65625-4.546875-5.175781-3.769531-11.59375-3.746094-11.777343.636719-4.105469-2.175781-7.949219-6.28125-8.589844zm0 0"/><path d="m137.792969 41.785156c-8.308594-3.894531-18.566407 1.070313-23.359375 11.296875-4.792969 10.222657-2.039063 21.285157 6.265625 25.175781 9.503906 4.453126 19.386719-2.832031 23.351562-11.296874 3.960938-8.445313 3.195313-20.742188-6.257812-25.175782zm0 0"/><path d="m331.042969 78.257812c8.300781-3.890624 11.050781-14.949218 6.261719-25.175781-4.792969-10.226562-15.050782-15.1875-23.359376-11.296875-9.453124 4.429688-10.21875 16.730469-6.257812 25.175782 3.964844 8.464843 13.847656 15.75 23.355469 11.296874zm0 0"/></svg>