<svg height="511pt" viewBox="-25 0 511 511.99982" width="511pt" xmlns="http://www.w3.org/2000/svg"><path d="m55.3125 152.660156c.28125-1.105468.574219-2.199218.875-3.285156-2.726562-.601562-5.554688-.929688-8.464844-.929688-21.542968 0-39.007812 17.464844-39.007812 39.007813s17.464844 39.007813 39.007812 39.007813c4.738282 0 9.277344-.84375 13.480469-2.390626-10.332031-18.8125-13.304687-42.425781-5.890625-71.410156zm0 0" fill="#ffae8b"/><path d="m47.722656 199.460938c-16.796875 0-31.113281-10.617188-36.605468-25.507813-1.554688 4.207031-2.402344 8.753906-2.402344 13.5 0 21.542969 17.464844 39.007813 39.007812 39.007813 4.738282 0 9.277344-.847657 13.480469-2.394532-4.132813-7.519531-7.082031-15.8125-8.667969-24.90625-1.578125.195313-3.179687.300782-4.8125.300782zm0 0" fill="#ff9568"/><path d="m360.820312 152.660156c-.28125-1.105468-.574218-2.199218-.875-3.285156 2.726563-.601562 5.554688-.929688 8.464844-.929688 21.542969 0 39.007813 17.464844 39.007813 39.007813s-17.464844 39.007813-39.007813 39.007813c-4.738281 0-9.277344-.84375-13.480468-2.390626 10.332031-18.8125 13.304687-42.425781 5.890624-71.410156zm0 0" fill="#ffae8b"/><path d="m368.40625 199.460938c16.800781 0 31.117188-10.617188 36.609375-25.507813 1.550781 4.207031 2.398437 8.753906 2.398437 13.5 0 21.542969-17.464843 39.007813-39.007812 39.007813-4.738281 0-9.277344-.847657-13.476562-2.394532 4.128906-7.519531 7.082031-15.8125 8.664062-24.90625 1.582031.195313 3.183594.300782 4.8125.300782zm0 0" fill="#ff9568"/><path d="m433.972656 421.476562c-11.625-2.539062-23.371094 3.660157-27.863281 14.679688-5.164063 12.65625-15.09375 26.820312-33.722656 27.132812-19.722657.332032-49.035157-16.992187-71.597657-32.792968-.773437 12.753906-2.765624 25.902344-6.535156 38.871094 16.632813 18.179687 42.503906 34.867187 81.308594 34.324218 44.394531-.617187 65.539062-26.613281 75.453125-48.164062 6.515625-14.167969-1.804687-30.726563-17.042969-34.050782zm0 0" fill="#ad5e2e"/><path d="m375.5625 482.800781c-35.894531.5-60.710938-13.738281-77.398438-30.265625-1.007812 5.613282-2.285156 11.238282-3.910156 16.832032 16.632813 18.179687 42.503906 34.867187 81.308594 34.324218 44.394531-.617187 65.539062-26.613281 75.453125-48.164062 3.175781-6.90625 2.820313-14.375-.136719-20.605469-9.96875 21.492187-31.117187 47.261719-75.316406 47.878906zm0 0" fill="#a05528"/><path d="m346.898438 350.238281c-5.34375-33.816406-24.183594-64.628906-39.367188-84.847656-27.867188 12.953125-63.128906 18.855469-99.464844 18.855469-38.792968 0-76.375-6.722656-105.027344-21.578125-15.488281 20.113281-35.84375 52.199219-41.433593 87.570312-10.417969 65.910157 45.824219 74.367188 45.824219 74.367188h.003906c.652344 19.925781 4.125 41.042969 12.597656 61.109375 4.59375 10.886718 15.25 17.976562 27.066406 17.976562 14.183594 0 26.335938-10.140625 28.875-24.09375l5.664063-31.128906h45.226562l5.664063 31.128906c2.539062 13.953125 14.691406 24.09375 28.875 24.09375 11.816406 0 22.46875-7.089844 27.066406-17.976562 8.472656-20.066406 11.945312-41.183594 12.597656-61.109375h.003906s56.242188-8.457031 45.828126-74.367188zm0 0" fill="#dd8858"/><g fill="#d97f4a"><path d="m110.847656 376.058594c-23.324218.835937-38.902344-10.621094-49.289062-25.503906-10.183594 65.609374 45.863281 74.050781 45.871094 74.054687-.574219-17.644531 1.066406-34.347656 3.417968-48.550781zm0 0"/><path d="m297.652344 376.058594c23.324218.835937 38.902344-10.621094 49.292968-25.503906 10.179688 65.609374-45.863281 74.050781-45.871093 74.054687.574219-17.644531-1.066407-34.347656-3.421875-48.550781zm0 0"/><path d="m147.875 469.3125c-15.75-1.632812-28.980469-10.535156-37.835938-18.390625 1.984376 11.664063 5.179688 23.398437 9.992188 34.792969 4.597656 10.886718 15.25 17.976562 27.066406 17.976562 14.183594 0 26.335938-10.140625 28.875-24.09375l2.164063-11.875c-7.355469 1.738282-17.488281 2.914063-30.261719 1.589844zm0 0"/><path d="m260.625 469.3125c15.753906-1.632812 28.984375-10.535156 37.839844-18.390625-1.988282 11.664063-5.183594 23.398437-9.996094 34.792969-4.59375 10.886718-15.25 17.976562-27.066406 17.976562-14.179688 0-26.335938-10.140625-28.875-24.09375l-2.160156-11.875c7.355468 1.738282 17.488281 2.914063 30.257812 1.589844zm0 0"/></g><path d="m360.820312 152.660156c-8.820312-34.496094-27.046874-59.496094-47.9375-77.570312-15.703124-13.585938-33.449218-23.605469-52.164062-30.074219l.007812-.003906c-28.820312-14.429688-79.9375-23.019531-95.832031-24.144531-12.179687-.867188-19.382812-5.511719-23.550781-9.980469-3.769531-4.039063-10.457031-3.242188-13.152344 1.578125-9.605468 17.199218-7.339844 36.710937-4.777344 47.78125-7.011718 4.355468-13.757812 9.300781-20.164062 14.84375-20.890625 18.070312-39.117188 43.074218-47.9375 77.570312-24.03125 93.96875 60.96875 131.585938 152.753906 131.585938 91.78125 0 176.785156-37.617188 152.753906-131.585938zm0 0" fill="#ffcb9d"/><path d="m208.066406 257.246094c-75.9375 0-147.230468-25.75-155.976562-87.859375-10.308594 81.730469 69.847656 114.859375 155.976562 114.859375s166.285156-33.128906 155.972656-114.859375c-8.746093 62.109375-80.039062 87.859375-155.972656 87.859375zm0 0" fill="#ffba7e"/><path d="m360.820312 152.660156c-8.820312-34.496094-27.046874-59.496094-47.9375-77.570312-15.703124-13.585938-33.449218-23.605469-52.164062-30.074219l.007812-.003906c-28.820312-14.429688-79.9375-23.019531-95.832031-24.144531-12.179687-.867188-19.382812-5.511719-23.550781-9.980469-3.769531-4.039063-10.457031-3.242188-13.152344 1.578125-9.605468 17.199218-7.339844 36.710937-4.777344 47.78125-7.011718 4.355468-13.757812 9.300781-20.164062 14.84375-20.890625 18.070312-39.117188 43.074218-47.9375 77.570312-2.84375 11.113282-4.144531 21.425782-4.105469 30.992188 9.148438-2.6875 21.160157-8.996094 33.046875-23.4375 24.152344-29.347656 22.691406-60.257813 56.191406-61.085938 24.867188-.613281 30.980469 21.628906 67.621094 21.628906 36.644532 0 42.753906-22.242187 67.621094-21.628906 33.5.828125 32.039062 31.738282 56.195312 61.085938 11.882813 14.441406 23.898438 20.75 33.042969 23.4375.035157-9.566406-1.261719-19.878906-4.105469-30.992188zm0 0" fill="#dd8858"/><path d="m120.148438 163.71875c0 10.707031 6.746093 19.09375 15.355468 19.09375s15.355469-8.386719 15.355469-19.09375c0-10.703125-6.746094-19.089844-15.355469-19.089844s-15.355468 8.386719-15.355468 19.089844zm0 0"/><path d="m277.9375 182.8125c8.609375 0 15.351562-8.386719 15.351562-19.09375 0-10.703125-6.742187-19.089844-15.351562-19.089844-8.613281 0-15.355469 8.386719-15.355469 19.089844 0 10.707031 6.742188 19.09375 15.355469 19.09375zm0 0"/><path d="m458.09375 431.683594c-4.359375-8.75-12.335938-14.960938-21.882812-17.042969-15.265626-3.332031-30.621094 4.757813-36.523438 19.234375-6.019531 14.757812-15.097656 22.339844-26.988281 22.539062-2.621094.046876-5.683594-.320312-9.046875-1.085937-4.050782-.917969-8.085938 1.617187-9.003906 5.667969-.921876 4.054687 1.617187 8.085937 5.667968 9.003906 4.539063 1.035156 8.796875 1.515625 12.636719 1.460938 17.957031-.304688 32.398437-11.632813 40.664063-31.902344 3.136718-7.6875 11.285156-11.984375 19.382812-10.214844 10.40625 2.269531 16.339844 13.933594 11.863281 23.664062-9.074219 19.730469-28.40625 43.371094-68.957031 43.933594-29.09375.417969-53.671875-9.351562-73.058594-29.003906 2.066406-7.847656 3.542969-15.71875 4.527344-23.503906 8.179688 5.347656 15.941406 9.96875 23.152344 13.761718 3.632812 1.910157 8.253906.46875 10.160156-3.160156 1.933594-3.675781.519531-8.226562-3.15625-10.160156-7.679688-4.035156-16.058594-9.09375-24.972656-15.050781 8.839844-3.167969 21.667968-9.695313 31.167968-22.660157 10.96875-14.972656 14.660157-34.421874 10.964844-57.804687-5.003906-31.664063-21.179687-60.617187-35.648437-81.210937 17.242187-9.347657 30.683593-21.246094 39.769531-35.339844 3.277344.71875 6.628906 1.085937 10.023438 1.085937 25.726562 0 46.652343-20.929687 46.652343-46.65625 0-25.722656-20.925781-46.652343-46.652343-46.652343-1.050782 0-2.105469.050781-3.160157.121093-9.023437-28.148437-24.996093-52.296875-47.617187-71.871093-16.105469-13.933594-34.46875-24.539063-54.59375-31.519532-4.066406-1.527344-8.703125.8125-9.890625 4.984375-1.078125 3.789063 1.054687 7.882813 4.777343 9.167969 18.382813 6.355469 35.160157 16.027344 49.863282 28.75 22.835937 19.753906 38.21875 44.648438 45.722656 73.984375 1.546875 6.050781 2.605469 11.902344 3.230469 17.566406-6.78125-3.867187-13.277344-9.480469-19.164063-16.628906-7.816406-9.5-12.945312-19.484375-17.464844-28.292969-9.261718-18.035156-18.011718-35.070312-44.523437-35.726562-13.59375-.351563-22.53125 5.058594-31.183594 10.269531-9.320312 5.617187-18.957031 11.425781-36.835937 11.425781s-27.515625-5.808594-36.835938-11.425781c-8.652344-5.210937-17.609375-10.617187-31.183594-10.269531-26.515624.65625-35.261718 17.691406-44.523437 35.726562-4.523437 8.808594-9.648437 18.792969-17.464844 28.292969-5.886719 7.148437-12.382812 12.761719-19.164062 16.628906.621093-5.664062 1.683593-11.515625 3.230469-17.566406 7.503906-29.335937 22.886718-54.230469 45.722656-73.984375 6.015625-5.207031 12.503906-9.984375 19.277344-14.191406 2.734374-1.699219 4.085937-4.953125 3.355468-8.089844-2.160156-9.332031-4.511718-27.269531 4.03125-42.5625.039063-.066406.15625-.277344.515625-.320312.371094-.050782.550781.140624.605469.199218 4.71875 5.0625 13.507812 11.316406 28.597656 12.382813 11.804688.839843 41.070313 5.621093 66.386719 13.226562 3.980469 1.199219 8.175781-1.058593 9.371094-5.039062 1.195312-3.976563-1.0625-8.171875-5.042969-9.371094-26.699219-8.023437-56.804688-12.914063-69.652344-13.824219-8.195312-.582031-14.472656-3.148437-18.65625-7.636718-3.414062-3.660157-8.433594-5.484376-13.421875-4.878907-4.980469.605469-9.40625 3.566407-11.839843 7.925781-9.503907 17.019532-8.710938 35.855469-6.609376 48.046876-5.847656 3.894531-11.472656 8.171874-16.765624 12.75-22.621094 19.570312-38.589844 43.722656-47.617188 71.871093-1.054688-.070312-2.109375-.121093-3.160156-.121093-25.722656 0-46.652344 20.929687-46.652344 46.652343 0 25.726563 20.929688 46.65625 46.652344 46.65625 3.398437 0 6.75-.367187 10.027344-1.085937 8.105468 12.578125 19.6875 23.40625 34.339843 32.234375-7.984375 11.03125-14.917969 22.257812-20.628906 33.472656-1.886719 3.703125-.414063 8.230469 3.289063 10.117187 3.65625 1.863282 8.257812.363282 10.117187-3.289062 5.652344-11.09375 12.585937-22.234375 20.636719-33.183594 10.421875 4.867188 22.039062 8.898438 34.75 12.015625 3.980468.980469 8.121094-1.53125 9.097656-5.511719.992188-4.035156-1.476562-8.109374-5.511719-9.101562-35.722656-8.765625-61.542969-24.976562-74.667969-46.878906-6.046874-10.085938-9.441406-21.457032-10.234374-33.988282 11.378906-4.566406 21.867187-12.609374 31.238281-23.996093 8.84375-10.75 14.363281-21.496094 19.234375-30.980469 9.40625-18.316406 14.675781-27.140625 31.507812-27.554688 9.242188-.214843 15.3125 3.453126 23.046875 8.113282 10.042969 6.050781 22.539063 13.582031 44.601563 13.582031s34.5625-7.53125 44.601562-13.582031c7.734375-4.660156 13.796875-8.339844 23.046875-8.113282 16.835938.414063 22.101563 9.238282 31.507813 27.554688 4.871094 9.484375 10.390625 20.230469 19.234375 30.980469 9.371093 11.386719 19.859375 19.429687 31.238281 23.996093-.792969 12.53125-4.1875 23.902344-10.230469 33.988282-13.128906 21.902344-38.949219 38.113281-74.671875 46.878906-4.035156.992188-6.503906 5.066406-5.511718 9.101562.976562 3.980469 5.117187 6.492188 9.097656 5.511719 10.40625-2.550781 20.074218-5.71875 28.957031-9.449219 13.847656 19.3125 29.832031 47.027344 34.5625 76.980469 3.84375 24.320313-1.515625 42.726563-15.929687 54.710938-5.09375 4.238281-10.523438 6.960937-14.902344 8.667969-.511719-45.519532-14.132813-82.394532-15.003906-84.707032-1.464844-3.882812-5.804688-5.84375-9.6875-4.382812-3.886719 1.464844-5.851563 5.800781-4.390626 9.691406.300782.804688 29.914063 81.25 1.808594 147.816406-3.449218 8.164063-11.382812 13.4375-20.222656 13.4375-10.597656 0-19.667969-7.570312-21.5625-17.996094l-5.683594-31.222656c-.652344-3.578125-3.765625-6.175781-7.402344-6.175781h-45.363281c-3.636719 0-6.75 2.597656-7.402343 6.175781l-5.683594 31.222656c-1.898438 10.425782-10.964844 17.996094-21.5625 17.996094-8.839844 0-16.777344-5.273437-20.222656-13.4375-28.109376-66.566406 1.507812-147.011718 1.808593-147.8125 1.464844-3.886718-.5-8.230468-4.386719-9.695312-3.882812-1.464844-8.230468.496094-9.695312 4.382812-.871094 2.3125-14.488281 39.183594-15 84.707032-4.378906-1.710938-9.808594-4.429688-14.90625-8.671876-14.414062-11.980468-19.773438-30.390624-15.925781-54.710937 1.007812-6.378906 2.585937-12.988281 4.695312-19.640625 1.257813-3.960938-.9375-8.1875-4.898437-9.445312-3.960938-1.253907-8.191406.9375-9.445313 4.902343-2.335937 7.367188-4.089843 14.714844-5.214843 21.835938-3.695313 23.386719-.007813 42.835937 10.964843 57.804687 11.039063 15.070313 26.570313 21.445313 35.113281 23.949219 1.148438 19.058594 4.921876 39.046875 13.03125 58.246094 5.804688 13.75 19.183594 22.632812 34.082032 22.632812 17.875 0 33.167968-12.765625 36.367187-30.347656l4.558594-25.050781h32.808594l4.558593 25.050781c3.203126 17.582031 18.496094 30.34375 36.367188 30.34375 14.902344 0 28.28125-8.882813 34.082031-22.628906.773438-1.832031 1.496094-3.667969 2.191407-5.511719 20.871093 18.480469 47.035156 28.15625 76.464843 28.15625.621094 0 1.253907-.003906 1.878907-.011719 48.394531-.675781 71.53125-29.027343 82.417968-52.695312 4.0625-8.832031 3.902344-18.894531-.441406-27.609375zm-442.546875-244.445313c0-17.125 13.691406-31.101562 30.699219-31.582031-1.84375 8.382812-2.871094 16.460938-3.09375 24.230469-3.460938 1.847656-8.699219 1.386719-10.582032.984375-4.046874-.890625-8.050781 1.65625-8.960937 5.695312-.910156 4.054688 1.632813 8.082032 5.6875 8.992188 4.703125 1.058594 9.859375 1.011718 14.546875-.046875.996094 8.152343 3 15.898437 6 23.21875-.894531.074219-1.789062.117187-2.691406.117187-17.425782 0-31.605469-14.179687-31.605469-31.609375zm384.894531 0c0 17.429688-14.175781 31.609375-31.605468 31.609375-.902344 0-1.796876-.042968-2.6875-.117187 3-7.320313 5-15.066407 5.996093-23.21875 4.6875 1.058593 9.84375 1.105469 14.546875.046875 4.035156-.90625 6.554688-4.898438 5.671875-8.941406-.882812-4.042969-4.890625-6.605469-8.933593-5.746094-1.878907.398437-7.128907.863281-10.589844-.988282-.226563-7.765624-1.253906-15.84375-3.097656-24.226562 17.007812.480469 30.699218 14.457031 30.699218 31.582031zm0 0"/><path d="m206.722656 224.433594c4.152344 0 7.519532-3.367188 7.519532-7.523438v-16.867187c8.785156-2.519531 15.589843-9.171875 15.589843-16.324219 0-2.621094-1.007812-8.957031-10.355469-11.171875-3.066406-.722656-6.878906-1.035156-12.753906-1.035156s-9.691406.3125-12.757812 1.035156c-9.347656 2.214844-10.355469 8.550781-10.355469 11.171875 0 7.152344 6.804687 13.804688 15.589844 16.324219v16.867187c-.003907 4.15625 3.367187 7.523438 7.523437 7.523438zm0 0"/></svg>