<svg height="511pt" viewBox="0 0 511 511.99911" width="511pt" xmlns="http://www.w3.org/2000/svg"><path d="m426.78125 377.320312c-6.605469-76.421874-62.269531-87.742187-82.082031-110.386718-19.816407-22.640625 16.980469-37.738282 45.285156-91.515625 28.304687-53.777344 22.566406-154.921875-80.195313-166.050781-92.292968-10-121.425781 66.152343-121.425781 66.152343 19.660157.253907 36.652344 13.84375 41.195313 32.976563 9.257812 39-4.957032 74.523437-4.957032 74.523437s-11.597656 30.878907-29.726562 31.550781c-7.496094.28125-15.316406.578126-23.296875.820313-.878906 71.429687 11.957031 151.324219 65.636719 190.296875 89.203125 64.773438 161.933594 16.371094 161.933594 16.371094 13.277343 46.8125 41.492187 81.476562 41.492187 81.476562 46.59375-5.546875 62.253906-40.398437 62.253906-40.398437-18.867187-49.605469-76.113281-85.816407-76.113281-85.816407zm0 0" fill="#8c808a"/><path d="m414.40625 404.023438c-2.964844-6.148438-10.289062-8.808594-16.539062-6.050782-25.46875 11.238282-91.054688 31.25-160.652344-19.285156-46.992188-34.121094-62.683594-99.601562-65.273438-163.3125-.121094.003906-.238281.007812-.363281.011719-.878906 71.433593 11.957031 151.324219 65.636719 190.300781 89.203125 64.769531 161.933594 16.371094 161.933594 16.371094 13.277343 46.8125 41.492187 81.472656 41.492187 81.472656 11.523437-1.371094 21.148437-4.539062 29.121094-8.523438-11.972657-14.941406-38.289063-55.597656-55.355469-90.984374zm0 0" fill="#7b7179"/><path d="m229.558594 108.492188c9.257812 39-4.957032 74.527343-4.957032 74.527343s-11.597656 30.878907-29.726562 31.550781c-7.496094.277344-15.316406.578126-23.296875.816407-.453125 36.878906 2.75 76.015625 13.339844 110.609375 62.804687 36.570312 83.453125-16.832032 86.0625-45.011719 3.019531-32.628906 4.832031-58.003906 35.644531-90.027344 30.816406-32.023437 31.417969-94.253906-11.476562-125.070312-42.898438-30.8125-106.785157 9.632812-106.785157 9.632812 19.660157.253907 36.652344 13.84375 41.195313 32.972657zm0 0" fill="#e6e2e6"/><path d="m80.035156 189.226562c-8.683594 3.757813-14.503906 9.050782-18.542968 14.992188 33.441406 14.464844 89.023437 12 133.382812 10.351562 18.128906-.675781 29.726562-31.550781 29.726562-31.550781s-106.085937-10.433593-144.566406 6.207031zm0 0" fill="#ff9a00"/><path d="m229.558594 108.492188c-4.542969-19.128907-21.535156-32.71875-41.195313-32.972657-44.027343-.566406-127.996093 5.492188-161.371093 56.503907-37.828126 57.820312-7.28125 120.371093 12.480468 120.507812 19.761719.140625 2.078125-46.664062 40.5625-63.304688 38.480469-16.640624 144.566406-6.207031 144.566406-6.207031s14.214844-35.527343 4.957032-74.527343zm0 0" fill="#ffc265"/><path d="m63.117188 165.027344c-40.367188 17.457031-28.933594 62.722656-41.613282 73.285156 5.609375 8.890625 12.242188 14.179688 17.96875 14.21875 19.761719.140625 2.078125-46.664062 40.5625-63.304688 38.480469-16.640624 144.566406-6.207031 144.566406-6.207031s4.101563-10.265625 6.460938-25.808593c-22.921875-1.980469-127.199219-9.804688-167.945312 7.816406zm0 0" fill="#ffb541"/><path d="m510.867188 461.246094c-17.234376-45.324219-63.675782-79.199219-76.292969-87.765625-6.21875-57.25-39.265625-79.390625-63.53125-95.648438-8.4375-5.652343-15.722657-10.535156-20.34375-15.8125-6.539063-7.480469-6.191407-11.226562 12.390625-33.976562 10.085937-12.347657 22.640625-27.71875 34.066406-49.425781 21.269531-40.414063 23.976562-104.640626-12.90625-144.0625-2.839844-3.035157-7.605469-3.195313-10.640625-.355469-3.039063 2.84375-3.195313 7.605469-.355469 10.644531 18.695313 19.980469 23.53125 45.132812 24.296875 62.710938.96875 22.292968-4.03125 45.640624-13.71875 64.050781-10.722656 20.367187-22.742187 35.085937-32.40625 46.910156-8.105469 9.929687-14.511719 17.769531-17.601562 25.726563-3.863281 9.953124-2.050781 19.011718 5.542969 27.691406 5.925781 6.769531 14.363281 12.421875 23.292968 18.40625 23.484375 15.730468 52.707032 35.3125 57.265625 88.089844.203125 2.339843 1.488281 4.453124 3.472657 5.710937.542968.34375 53.148437 34.085937 72.140624 79.320313-4.335937 7.300781-19.050781 27.632812-50.898437 32.9375-3.460937-4.671876-10.027344-14.03125-17.015625-26.582032-2.019531-3.632812-6.605469-4.941406-10.238281-2.917968-3.632813 2.023437-4.9375 6.605468-2.917969 10.242187 10.863281 19.519531 20.621094 31.582031 21.03125 32.082031 1.613281 1.980469 4.195312 3.027344 6.730469 2.722656 50.421875-6 67.753906-43.351562 68.464843-44.9375.820313-1.820312.882813-3.894531.171876-5.761718zm0 0"/><path d="m414.933594 443.578125c-3.167969-7.683594-5.859375-15.402344-7.996094-22.941406-1.367188-4.8125-7.214844-6.976563-11.398438-4.226563-.171874.117188-17.6875 11.472656-45.285156 15.082032-36.855468 4.820312-73.421875-5.71875-108.6875-31.328126-18.632812-13.527343-33.28125-33.363281-43.710937-59.113281 8.933593 3.449219 17.355469 5.179688 25.230469 5.179688 6.796874 0 13.1875-1.289063 19.140624-3.871094 9.644532-4.179687 26.917969-15.976563 34.269532-48.03125.925781-4.050781-1.605469-8.089844-5.65625-9.019531-4.050782-.925782-8.089844 1.601562-9.019532 5.65625-2.03125 8.84375-8.582031 30.214844-25.582031 37.582031-11.886719 5.152344-27.097656 2.683594-45.242187-7.339844-.027344-.09375-.054688-.183593-.082032-.28125-.011718-.027343-.019531-.058593-.027343-.089843-8.023438-27.632813-12.097657-60.679688-12.136719-98.3125 4.386719-.148438 8.710938-.308594 12.929688-.46875l3.246093-.121094c22.492188-.835938 35.164063-32.726563 36.589844-36.511719 1.003906-2.535156 14.859375-38.832031 5.265625-79.226563-3.613281-15.21875-13.859375-27.433593-27.257812-33.882812 20.746093-9.0625 55.8125-19.398438 81.378906-1.035156 17.4375 12.527344 28.15625 31.6875 30.183594 53.949218 2.074218 22.765626-5.289063 45.292969-19.691407 60.261719-25.230469 26.21875-32.589843 49.140625-35.878906 75.492188-.515625 4.125 2.410156 7.886719 6.535156 8.402343.320313.039063.632813.058594.945313.058594 3.742187 0 6.984375-2.789062 7.460937-6.597656 3.078125-24.65625 9.265625-43.511719 31.785157-66.914062 17.390624-18.074219 26.304687-45.015626 23.839843-72.070313-2.429687-26.679687-15.355469-49.699219-36.394531-64.808594-19.558594-14.050781-45.929688-16.773437-76.253906-7.875-5.792969 1.699219-11.195313 3.664063-16.035156 5.644531 3.277343-4.316406 7.273437-8.9375 12.082031-13.480468 23.394531-22.113282 53.582031-31.339844 89.703125-27.425782 15.976562 1.730469 30.136718 5.832032 42.085937 12.195313 3.667969 1.953125 8.226563.5625 10.183594-3.109375 1.953125-3.667969.5625-8.226562-3.109375-10.183594-13.648438-7.265625-29.640625-11.933594-47.539062-13.875-50.707032-5.492187-83.277344 14.074219-101.664063 31.453125-14.28125 13.496094-22.347656 27.644531-25.886719 34.878907-48.535156-.054688-129.449218 8.21875-163.429687 60.160156-27.324219 41.761718-21.460938 85.59375-8.140625 110.4375 7.523437 14.027344 17.332031 22.109375 26.914062 22.175781h.160156c14.640626 0 17.320313-14.292969 19.472657-25.78125 1.296875-6.90625 2.679687-14.25 5.847656-20.902344 22.273437 7.84375 51.539063 9.84375 80.738281 9.84375 6.320313 0 12.632813-.09375 18.875-.238281.074219 38.890625 4.355469 73.203125 12.746094 102.09375 10.496094 36.136719 27.507812 63.980469 50.617188 82.902344-11.964844 4.058594-26.734376 13.113281-35.445313 33.332031-1.644531 3.820313.117187 8.246094 3.933594 9.894531 3.773437 1.621094 8.273437-.167968 9.894531-3.9375 8.609375-19.980468 25.039062-25.457031 33.996094-26.953125-10.652344 7.457031-24.289063 19.835938-29.417969 36.800781-1.207031 3.980469 1.042969 8.179688 5.023437 9.386719 3.929688 1.1875 8.199219-1.101562 9.386719-5.027343 4.476563-14.796876 18.445313-25.652344 27.429688-31.320313-7.6875 7.71875-15.570313 19.675781-16.289063 36.648437-.175781 4.15625 3.050782 7.664063 7.203125 7.839844 4.101563.1875 7.667969-3.113281 7.839844-7.203125.800781-18.96875 14.09375-29.480469 20.03125-33.246093 8.078125 3.492187 15.917969 6.175781 23.449219 8.183593-8.882813 7.941407-18.15625 20.574219-18.15625 38.738281 0 4.15625 3.367187 7.527344 7.527344 7.527344 4.160156 0 7.527343-3.371094 7.527343-7.527344 0-20.753906 17.777344-31.753906 23.410157-34.714843.132812.015625.265624.035156.398437.050781-6.433594 8.492188-13.046875 21.109375-13.046875 37.128906 0 4.15625 3.371094 7.527344 7.53125 7.527344 4.15625 0 7.527344-3.371094 7.527344-7.527344 0-18.65625 12.554687-31.714844 17.246094-35.945312-5.207032 8.933594-9.175782 21.722656-5.039063 37.820312 1.050781 4.085938 5.398437 6.53125 9.441406 5.339844 3.832031-1.128906 6.132813-5.230469 5.140625-9.089844-4.945312-19.238281 6.625-31.832031 10.714844-35.566406 18.375-2.675781 32.519531-8.296875 40.910156-12.386719 1.714844 5.175781 3.652344 10.386719 5.792969 15.578125 1.667969 4.046875 6.582031 5.824219 10.464844 3.792969 3.394531-1.78125 4.910156-5.988281 3.453125-9.53125zm-371.5-212.089844c-.917969 4.882813-1.78125 9.492188-3.054688 12.101563-.691406 1.40625-.871094 1.40625-1.675781 1.398437-2.375-.015625-8.207031-3.894531-13.75-14.234375-11.375-21.210937-16.242187-58.835937 7.46875-95.078125 13.601563-20.792969 38.011719-35.800781 72.542969-44.605469 27.824218-7.09375 56.890625-8.742187 77.894531-8.742187 1.773437 0 3.496094.011719 5.148437.03125 16.324219.210937 30.355469 11.441406 34.125 27.3125 6.605469 27.820313.402344 54.167969-2.890624 65.039063-23.429688-1.96875-107.878907-7.777344-142.863282 7.351562-25.773437 11.144531-30.089844 34.183594-32.945312 49.425781zm30.574218-30.707031c2.367188-1.847656 5.113282-3.5 8.347657-4.898438 29.441406-12.730468 103.078125-8.628906 130.699219-6.542968-4.636719 8.285156-11.640626 17.285156-18.6875 17.550781l-3.25.121094c-38.457032 1.433593-85.347657 3.179687-117.109376-6.230469zm0 0"/><path d="m307.027344 323.5c-3.976563 1.21875-6.210938 5.429688-4.992188 9.402344.402344 1.320312 10.207032 32.480468 36.519532 45.535156 7.546874 3.746094 15.617187 5.617188 24.140624 5.617188 7.777344 0 15.9375-1.5625 24.421876-4.683594 3.902343-1.433594 5.902343-5.761719 4.46875-9.664063-1.433594-3.902343-5.765626-5.902343-9.664063-4.464843-13.71875 5.042968-26.035156 4.957031-36.601563-.257813-20.484374-10.109375-28.8125-36.246094-28.894531-36.507813-1.222656-3.964843-5.425781-6.191406-9.398437-4.976562zm0 0"/><path d="m275.996094 142.011719c8.570312 0 15.28125-8.335938 15.28125-18.980469 0-10.640625-6.710938-18.976562-15.28125-18.976562-8.566406 0-15.28125 8.335937-15.28125 18.976562 0 10.644531 6.714844 18.980469 15.28125 18.980469zm0 0"/></svg>